<?xml version="1.0" encoding="UTF-8" standalone="no"?>
<svg
   xmlns:dc="http://purl.org/dc/elements/1.1/"
   xmlns:cc="http://creativecommons.org/ns#"
   xmlns:rdf="http://www.w3.org/1999/02/22-rdf-syntax-ns#"
   xmlns:svg="http://www.w3.org/2000/svg"
   xmlns="http://www.w3.org/2000/svg"
   xmlns:xlink="http://www.w3.org/1999/xlink"
   xmlns:sodipodi="http://sodipodi.sourceforge.net/DTD/sodipodi-0.dtd"
   xmlns:inkscape="http://www.inkscape.org/namespaces/inkscape"
   width="550"
   height="370"
   viewBox="0 0 145.52083 97.895836"
   version="1.1"
   id="svg8"
   inkscape:export-filename="/home/raman/Downloads/responsive-thumbnail.png"
   inkscape:export-xdpi="96"
   inkscape:export-ydpi="96"
   inkscape:version="1.0.2 (1.0.2+r75+1)"
   sodipodi:docname="build-responsive-website-thumbnail.svg">
  <defs
     id="defs2">
    <linearGradient
       inkscape:collect="always"
       id="linearGradient847">
      <stop
         style="stop-color:#b993d6;stop-opacity:1"
         offset="0"
         id="stop843" />
      <stop
         style="stop-color:#8ca6db;stop-opacity:1"
         offset="1"
         id="stop845" />
    </linearGradient>
    <linearGradient
       inkscape:collect="always"
       xlink:href="#linearGradient847"
       id="linearGradient849"
       x1="0.24938561"
       y1="46.405109"
       x2="145.45583"
       y2="46.013172"
       gradientUnits="userSpaceOnUse" />
    <linearGradient
       id="deacd444-d5db-4c24-9492-02e57292be3c"
       x1="675.05"
       y1="606.02"
       x2="675.05"
       y2="240.27"
       gradientUnits="userSpaceOnUse">
      <stop
         offset="0"
         stop-color="gray"
         stop-opacity="0.25"
         id="stop1104" />
      <stop
         offset="0.54"
         stop-color="gray"
         stop-opacity="0.12"
         id="stop1106" />
      <stop
         offset="1"
         stop-color="gray"
         stop-opacity="0.1"
         id="stop1108" />
    </linearGradient>
    <linearGradient
       id="a1de9c2c-a914-4f57-a703-6b671b828453"
       x1="473.94"
       y1="635.65"
       x2="473.94"
       y2="301.65"
       xlink:href="#deacd444-d5db-4c24-9492-02e57292be3c" />
    <linearGradient
       id="33ead0d0-8f65-4117-bca2-44ecb419ecb0"
       x1="363.44"
       y1="662.65"
       x2="363.44"
       y2="401.65"
       xlink:href="#deacd444-d5db-4c24-9492-02e57292be3c" />
    <linearGradient
       id="9a5964b5-9011-4675-8f60-8033350848c0"
       x1="849.68"
       y1="703.66"
       x2="849.68"
       y2="385.5"
       xlink:href="#deacd444-d5db-4c24-9492-02e57292be3c" />
    <linearGradient
       inkscape:collect="always"
       xlink:href="#deacd444-d5db-4c24-9492-02e57292be3c"
       id="linearGradient1318"
       gradientUnits="userSpaceOnUse"
       x1="675.05"
       y1="606.02"
       x2="675.05"
       y2="240.27" />
  </defs>
  <sodipodi:namedview
     id="base"
     pagecolor="#ffffff"
     bordercolor="#666666"
     borderopacity="1.0"
     inkscape:pageopacity="0.0"
     inkscape:pageshadow="2"
     inkscape:zoom="1.3309091"
     inkscape:cx="275"
     inkscape:cy="185"
     inkscape:document-units="px"
     inkscape:current-layer="layer1"
     inkscape:document-rotation="0"
     showgrid="false"
     inkscape:showpageshadow="false"
     units="px"
     inkscape:window-width="1294"
     inkscape:window-height="704"
     inkscape:window-x="72"
     inkscape:window-y="27"
     inkscape:window-maximized="1" />
  <metadata
     id="metadata5">
    <rdf:RDF>
      <cc:Work
         rdf:about="">
        <dc:format>image/svg+xml</dc:format>
        <dc:type
           rdf:resource="http://purl.org/dc/dcmitype/StillImage" />
        <dc:title></dc:title>
      </cc:Work>
    </rdf:RDF>
  </metadata>
  <g
     inkscape:label="Layer 1"
     inkscape:groupmode="layer"
     id="layer1">
    <rect
       style="opacity:1;fill:url(#linearGradient849);stroke-width:13.2292;fill-opacity:1;"
       id="rect10"
       width="145.52083"
       height="97.895836"
       x="2.7007891e-06"
       y="-1.1655052e-06"
       ry="0" />
    <text
       xml:space="preserve"
       style="font-weight:bold;font-size:10.5833px;line-height:1.3;font-family:Ubuntu;-inkscape-font-specification:'Ubuntu Bold';text-align:center;word-spacing:0px;text-anchor:middle;fill:#31335d;fill-opacity:1;stroke:none;stroke-width:0.264583;stroke-opacity:1;"
       x="72.575211"
       y="14.52166"
       id="text837"><tspan
         sodipodi:role="line"
         id="tspan835"
         x="72.575211"
         y="14.52166"
         style="text-align:center;text-anchor:middle;fill:#31335d;fill-opacity:1;stroke:none;stroke-width:0.264583;stroke-opacity:1;">Build </tspan><tspan
         sodipodi:role="line"
         x="72.575211"
         y="28.279949"
         style="text-align:center;text-anchor:middle;fill:#31335d;fill-opacity:1;stroke:none;stroke-width:0.264583;stroke-opacity:1;"
         id="tspan839">Responsive website</tspan></text>
    <g
       id="g1316"
       transform="matrix(0.09725132,0,0,0.09725132,22.384293,34.295466)">
      <path
         d="m 233.4,144.07 c -8.06,-0.23 -16.32,0 -23.88,2.32 -20.57,6.32 -30.32,27 -27.15,44.87 3.17,17.87 16.21,33.44 29.74,47.67 13.53,14.23 28.19,28.3 35.61,45.31 3.7,8.49 5.43,18 1.67,26.48 -5.8,13.07 -23.29,20.37 -40.08,21.89 -16.79,1.52 -33.65,-1.44 -50.5,-2.43 -7.07,-0.41 -14.34,-0.46 -21,1.45 -7.31,2.08 -13.4,6.33 -19,10.76 -21.85,17.38 -39.34,41.09 -36.51,66 3.2,28.23 31.74,50.54 63,62.51 10.35,4 21.3,7.18 30.41,12.84 24,14.93 29.39,42.93 27,67.64 -2.39,24.71 -10.53,49.45 -6,73.94 5.33,28.49 28.92,54.23 60.74,66.25 28.35,10.71 63.83,10 89,-5.11 12.27,-7.38 21.55,-17.63 29.62,-28.23 a 227.74,227.74 0 0 0 29.45,-51 c 3.51,-8.49 6.81,-17.62 15,-23.52 5,-3.63 11.48,-5.66 17.89,-7.24 19.32,-4.76 39.67,-6.06 59.17,-10.3 19.5,-4.24 39.12,-12.17 49.72,-26.27 15,-20 8,-45.62 8.07,-69.14 0.12,-53.66 39.11,-101.69 53.5,-154 4.7,-17.09 6.45,-36 -4.05,-51.25 -7.13,-10.35 -19.16,-17.82 -31.8,-23.59 C 545.21,229.23 513.6,223.58 482.51,218.08 439.3,210.44 386.83,209.45 353.34,184.73 321.2,161 277.23,144.07 233.4,144.07 Z"
         transform="translate(-82,-144)"
         fill="#6c63ff"
         opacity="0.2"
         id="path1118" />
      <ellipse
         cx="571"
         cy="487.48001"
         rx="465"
         ry="124.52"
         fill="#f5f5f5"
         id="ellipse1120" />
      <path
         d="m 1039.18,330.86 c 0,0 -35.83,35.83 -15.6,89 20.23,53.17 -34.68,141.59 -34.68,141.59 0,0 0.59,-0.09 1.68,-0.28 73.59,-13 110.16,-97.16 69.24,-159.69 -15.21,-23.24 -27.7,-50.48 -20.64,-70.62 z"
         transform="translate(-82,-144)"
         fill="#6c63ff"
         id="path1122" />
      <path
         d="m 1039.18,330.86 c 0,0 -20.23,43.92 0,79.75 20.23,35.83 3.47,136.39 -50.28,150.84"
         transform="translate(-82,-144)"
         fill="none"
         stroke="#535461"
         stroke-miterlimit="10"
         stroke-width="2"
         id="path1124" />
      <path
         d="m 1103,475.79 c 0,0 -40.89,-6.51 -44.61,30.13 -3.72,36.64 -78.62,41.72 -78.62,41.72 l 1.4,0.93 c 61.84,40.59 121,25.86 112,-28 -3.27,-20.08 -3,-40.21 9.83,-44.78 z"
         transform="translate(-82,-144)"
         fill="#6c63ff"
         id="path1126" />
      <path
         d="m 1103,475.79 c 0,0 -40.89,-6.51 -44.61,30.13 -3.72,36.64 -78.62,41.72 -78.62,41.72 l 1.4,0.93 c 61.84,40.59 121,25.86 112,-28 -3.27,-20.08 -3,-40.21 9.83,-44.78 z"
         transform="translate(-82,-144)"
         fill="#f5f5f5"
         opacity="0.2"
         id="path1128" />
      <path
         d="m 1103,475.79 c 0,0 -31.74,7 -29.13,35.82 2.61,28.82 -47.13,63.45 -94.1,36"
         transform="translate(-82,-144)"
         fill="none"
         stroke="#535461"
         stroke-miterlimit="10"
         stroke-width="2"
         id="path1130" />
      <path
         d="m 1008.37,563.92 h -64.24 a 21.42,21.42 0 0 0 2.24,-9.57 V 261.79 A 21.51,21.51 0 0 0 924.86,240.28 H 427.52 A 21.51,21.51 0 0 0 406,261.79 v 292.57 a 21.42,21.42 0 0 0 2.24,9.57 h -66.51 a 5.69,5.69 0 0 0 -5.69,5.69 v 4.59 A 31.82,31.82 0 0 0 367.86,606 h 614.38 a 31.82,31.82 0 0 0 31.82,-31.82 v -4.59 a 5.69,5.69 0 0 0 -5.69,-5.67 z m -395.89,18.2 -5.48,-6.25 h 136.72 l -6.1,6.26 z"
         transform="translate(-82,-144)"
         fill="url(#deacd444-d5db-4c24-9492-02e57292be3c)"
         id="path1132"
         style="fill:url(#linearGradient1318)" />
      <rect
         x="330.10999"
         y="100.42"
         width="528.12"
         height="327.98999"
         rx="23.26"
         ry="23.26"
         fill="#535461"
         id="rect1134" />
      <rect
         x="341.22"
         y="148.23"
         width="504.76999"
         height="267.95001"
         fill="#ffffff"
         id="rect1136" />
      <circle
         cx="593.60999"
         cy="124.88"
         r="4.4499998"
         fill="#ffffff"
         id="circle1138" />
      <path
         d="M 753.55,560.73 736.2,578.52 H 613.9 L 598.23,560.73 H 349.29 a 5.56,5.56 0 0 0 -5.56,5.56 v 4.48 a 31.1,31.1 0 0 0 31.1,31.1 h 600.45 a 31.1,31.1 0 0 0 31.1,-31.1 v -4.48 a 5.56,5.56 0 0 0 -5.56,-5.56 z"
         transform="translate(-82,-144)"
         fill="#535461"
         id="path1140" />
      <path
         d="M 580.41,301.65 H 367.48 a 19.51,19.51 0 0 0 -19.53,19.48 v 295 a 19.51,19.51 0 0 0 19.53,19.48 h 212.93 a 19.51,19.51 0 0 0 19.53,-19.48 v -295 a 19.51,19.51 0 0 0 -19.53,-19.48 z"
         transform="translate(-82,-144)"
         fill="url(#a1de9c2c-a914-4f57-a703-6b671b828453)"
         id="path1142"
         style="fill:url(#a1de9c2c-a914-4f57-a703-6b671b828453)" />
      <rect
         x="268.94"
         y="161.64999"
         width="246"
         height="327"
         rx="20"
         ry="20"
         fill="#535461"
         id="rect1144" />
      <rect
         x="281.44"
         y="192.58"
         width="221"
         height="265.14001"
         fill="#ffffff"
         id="rect1146" />
      <circle
         cx="390.94"
         cy="176.64999"
         r="3"
         fill="#ffffff"
         id="circle1148" />
      <circle
         cx="390.94"
         cy="472.64999"
         r="9"
         fill="#ffffff"
         id="circle1150" />
      <path
         d="M 418.11,401.65 H 308.78 a 10.81,10.81 0 0 0 -10.83,10.79 v 239.42 a 10.81,10.81 0 0 0 10.83,10.79 h 109.33 a 10.81,10.81 0 0 0 10.83,-10.79 V 412.44 a 10.81,10.81 0 0 0 -10.83,-10.79 z"
         transform="translate(-82,-144)"
         fill="url(#33ead0d0-8f65-4117-bca2-44ecb419ecb0)"
         id="path1152"
         style="fill:url(#33ead0d0-8f65-4117-bca2-44ecb419ecb0)" />
      <rect
         x="216.94"
         y="259.64999"
         width="129"
         height="258"
         rx="11"
         ry="11"
         fill="#535461"
         id="rect1154" />
      <rect
         x="226.44"
         y="283.64999"
         width="110"
         height="210"
         fill="#ffffff"
         id="rect1156" />
      <circle
         cx="268.44"
         cy="271.64999"
         r="1"
         fill="#ffffff"
         id="circle1158" />
      <rect
         x="273.44"
         y="270.64999"
         width="22"
         height="2"
         rx="1"
         ry="1"
         fill="#ffffff"
         id="rect1160" />
      <circle
         cx="280.94"
         cy="503.64999"
         r="7"
         fill="#ffffff"
         id="circle1162" />
      <path
         d="m 285.73,680.25 c 0,0 -13.26,-45 2.49,-78.14 A 71.09,71.09 0 0 0 294,557.5 119.57,119.57 0 0 0 287.69,536.57"
         transform="translate(-82,-144)"
         fill="none"
         stroke="#535461"
         stroke-miterlimit="10"
         stroke-width="2"
         id="path1164" />
      <path
         d="m 297.45,515.63 c 0,5.52 -10,21.51 -10,21.51 0,0 -10,-16 -10,-21.51 a 10,10 0 0 1 20,0 z"
         transform="translate(-82,-144)"
         fill="#6c63ff"
         id="path1166" />
      <path
         d="m 314,546.19 c -3,4.63 -20.08,12.63 -20.08,12.63 0,0 0.31,-18.86 3.31,-23.49 A 10,10 0 1 1 314,546.19 Z"
         transform="translate(-82,-144)"
         fill="#6c63ff"
         id="path1168" />
      <path
         d="m 313.24,598.4 c -4.93,2.48 -23.71,0.77 -23.71,0.77 0,0 9.79,-16.12 14.71,-18.6 a 10,10 0 0 1 9,17.84 z"
         transform="translate(-82,-144)"
         fill="#6c63ff"
         id="path1170" />
      <path
         d="m 303.8,637.79 c -4.44,3.28 -23.24,4.76 -23.24,4.76 0,0 6.92,-17.54 11.36,-20.82 a 10,10 0 0 1 11.88,16.06 z"
         transform="translate(-82,-144)"
         fill="#6c63ff"
         id="path1172" />
      <path
         d="m 272.91,559.89 c 4,3.84 22.39,7.83 22.39,7.83 0,0 -4.51,-18.31 -8.47,-22.15 a 10,10 0 1 0 -13.92,14.33 z"
         transform="translate(-82,-144)"
         fill="#6c63ff"
         id="path1174" />
      <path
         d="m 262.45,606.09 c 4.93,2.48 23.71,0.77 23.71,0.77 0,0 -9.79,-16.12 -14.71,-18.6 a 10,10 0 1 0 -9,17.84 z"
         transform="translate(-82,-144)"
         fill="#6c63ff"
         id="path1176" />
      <path
         d="m 258.45,652.39 c 4.44,3.28 23.24,4.76 23.24,4.76 0,0 -6.92,-17.54 -11.36,-20.82 a 10,10 0 0 0 -11.88,16.06 z"
         transform="translate(-82,-144)"
         fill="#6c63ff"
         id="path1178" />
      <path
         d="m 1077,537.1 c -11.07,-13.43 -24.48,-28.86 -22.6,-46.73 1.52,-14.47 -2.12,-27.85 -1.4,-42.37 1,-20.63 -3.14,-36.78 -18,-50 -8.68,-7.73 -23.19,-13.8 -27.51,-12.25 -8.56,3.06 -17.9,1.89 -26.71,4 -6.69,1.56 -11.14,4 -13.9,7 -5.55,5 -5.64,12 -3.11,19.45 A 32.85,32.85 0 0 0 980,462.28 c -6.17,2.58 -11.5,8.52 -13.58,20.58 a 140.68,140.68 0 0 1 -6.53,24.31 39.51,39.51 0 0 1 -4,1.61 c 0.3,0.12 0.61,0.2 0.91,0.31 -0.65,0.25 -1.29,0.5 -2,0.72 a 21.21,21.21 0 0 0 3.65,1.06 c -8,20.21 -18,32.73 -18,32.73 0,0 -18.65,4.12 -25.9,-3.09 0,0 1.18,1.38 2.78,3.45 -7.09,-2.94 -18.73,-7.74 -28.68,-11.69 -7.22,-2.87 -9.07,0 -9,4 a 13.32,13.32 0 0 0 -5,1.68 48.67,48.67 0 0 0 -6.69,-3.6 c -4.14,-1 -17.61,-8.24 -31.08,16.47 -7.84,14.37 -27.94,40.6 -43.39,60 -30.05,13.82 -69.17,31.32 -83.71,35.72 h -9.32 c -1.22,-2 -2.07,-3.26 -2.07,-3.26 l -0.72,0.48 -0.31,-0.48 c 0,0 -18.3,12.67 -36.88,12.77 a 35,35 0 0 1 -7.84,-1 c -8.54,-2.15 -14.56,-3.11 -18.86,-3 -5.09,-0.09 -8,1.12 -9.76,3.4 v 0 a 8.94,8.94 0 0 0 -0.65,0.94 v 0 a 11.05,11.05 0 0 0 -0.54,1 v 0 c -0.16,0.36 -0.32,0.74 -0.46,1.13 a 2.32,2.32 0 0 0 0.58,1.95 10.42,10.42 0 0 0 0.81,1 l 0.52,0.56 c 2.34,2.42 6.6,5.63 11.9,9.21 1.53,1 3.15,2.1 4.84,3.19 l 3.21,2 2.87,1.79 1.15,0.71 1.28,0.78 2.29,1.39 1.36,0.82 2.57,1.53 2.08,1.23 c 5.44,3.21 10.86,6.32 15.75,9.08 l 3.42,2.04 0.33,0.18 2.2,1.23 3.8,2.11 2.61,1.44 1.22,0.67 1.31,0.72 0.26,0.14 2.28,1.24 a 3.3,3.3 0 0 0 2.66,-0.72 c 0.66,-2.8 2.27,-8.8 4,-9.26 1.73,-0.46 9.22,-13.55 11.33,-22.31 h 20.22 a 89.13,89.13 0 0 0 11.84,-1.82 c -5.22,3.72 -10.39,6.06 -14.41,5.06 -8.5,-2.11 -16.55,3.07 -17.36,8.18 0,0.11 -0.07,0.21 -0.1,0.32 -0.03,0.11 -0.05,0.21 -0.07,0.31 -0.02,0.1 -0.06,0.25 -0.08,0.38 -0.02,0.13 0,0.21 0,0.32 0,0.11 0,0.25 0,0.38 0,0.13 0,0.21 0,0.31 0,0.1 0,0.26 0,0.39 0,0.13 0,0.2 0,0.3 0,0.1 0.06,0.27 0.1,0.41 0.04,0.14 0,0.18 0.07,0.26 a 5,5 0 0 0 0.22,0.53 l 0.05,0.13 a 5.38,5.38 0 0 0 0.38,0.63 l 0.16,0.21 c 0.1,0.14 0.21,0.28 0.33,0.41 l 0.23,0.23 c 0.12,0.12 0.25,0.24 0.38,0.36 l 0.28,0.23 0.45,0.33 0.33,0.22 0.54,0.32 0.36,0.19 0.68,0.32 0.34,0.15 c 0.36,0.15 0.74,0.29 1.15,0.42 0.65,0.21 1.42,0.43 2.29,0.65 l 0.87,0.21 1.27,0.29 0.67,0.15 q 1.3,0.28 2.76,0.56 l 1.35,0.25 1.1,0.2 2.53,0.44 c 1.58,0.27 3.23,0.54 5,0.8 l 4.36,0.66 5.68,0.81 1.26,0.17 2,0.28 2.93,0.39 2,0.26 v 0 l 5.19,0.66 1.62,0.2 3.27,0.4 c 4.3,0.52 8.46,1 12.29,1.43 l 4.43,0.5 2.24,0.25 1,0.1 2.68,0.29 1.49,0.16 1.84,0.19 2.59,0.27 h 0.28 l 1.66,0.17 v 0 a 1.51,1.51 0 0 0 1.67,-1.47 v 0 0 c 0,-0.05 0,-0.11 0,-0.17 a 1.46,1.46 0 0 0 0.24,-0.78 34,34 0 0 1 0.93,-7.32 c 0.11,-0.41 0.24,-0.83 0.38,-1.25 l 0.16,-0.48 c 0.18,-0.51 0.36,-1 0.57,-1.55 a 11.12,11.12 0 0 0 0.39,-1.14 c 0,-0.12 0.07,-0.24 0.11,-0.37 0.04,-0.13 0.1,-0.41 0.14,-0.62 2.08,-7.11 -0.43,-20.37 -1.15,-25.58 a 27.77,27.77 0 0 0 -1.14,-4.9 2,2 0 0 0 0.39,0 11.79,11.79 0 0 0 3,-1.63 c 15.28,-5.45 28.16,-11.68 32.23,-17.92 a 27.91,27.91 0 0 1 19.68,2.06 c 7.91,3.93 67.75,23.46 95.61,32.48 5,4.31 8.92,6.83 11.09,6.64 0,0 35.47,5.74 49.73,-5.46 1.27,0.88 2.07,1.35 2.07,1.35 0,0 20.72,-10.29 23.83,-23.68 1,-4.34 1.91,-10.74 2.84,-17.82 a 25.91,25.91 0 0 0 7.52,-18.21 c 0.65,-22.48 9.36,-48.16 15.82,-71 7.84,0.62 10.87,-0.86 18.06,-4.41 l -0.32,-0.41 c 0.51,-0.3 0.96,-0.5 1.41,-0.72 z m -118.79,33.67 -4,-1.33 a 33,33 0 0 0 3.45,-5.74 z m -22.29,9.46 24,14.4 0.21,2.93 a 21,21 0 0 0 0.2,6.7 c -10.58,-9.4 -22.96,-20.81 -24.42,-24.04 z m -9.8,-21 c -2.62,-1.08 -4.79,-2.06 -6.28,-2.87 2,0.14 3.9,0.26 5.56,0.35 a 12.44,12.44 0 0 1 0.72,2.52 z m -64.28,23.47 c 0,0 4.14,-9.26 13.47,6.18 1.45,2.4 4.12,6.22 7.65,10.95 L 855.8,596.2 c 3.2,-4.96 5.35,-9.57 6.04,-13.49 z"
         transform="translate(-82,-144)"
         fill="url(#9a5964b5-9011-4675-8f60-8033350848c0)"
         id="path1180"
         style="fill:url(#9a5964b5-9011-4675-8f60-8033350848c0)" />
      <path
         d="m 921.5,545.5 c 0,0 -19,-8 -34,-14 -15,-6 -6,14 -6,14 0,0 25,7 25,8 0,1 21,2 21,2 z"
         transform="translate(-82,-144)"
         fill="#f7c4a7"
         id="path1182" />
      <path
         d="m 921.5,545.5 c 0,0 -19,-8 -34,-14 -15,-6 -6,14 -6,14 0,0 25,7 25,8 0,1 21,2 21,2 z"
         transform="translate(-82,-144)"
         opacity="0.05"
         id="path1184" />
      <path
         d="m 1002.5,466.5 c 0,0 -34,-18 -40,17 -6,35 -25,59 -25,59 0,0 -18,4 -25,-3 0,0 17,20 9,22 0,0 18,13 26,9 8,-4 14,-31 17,-38 3,-7 14,-68 38,-66 z"
         transform="translate(-82,-144)"
         fill="#575988"
         id="path1186" />
      <path
         d="m 1002.5,466.5 c 0,0 -34,-18 -40,17 -6,35 -25,59 -25,59 0,0 -18,4 -25,-3 0,0 17,20 9,22 0,0 18,13 26,9 8,-4 14,-31 17,-38 3,-7 14,-68 38,-66 z"
         transform="translate(-82,-144)"
         opacity="0.1"
         id="path1188" />
      <path
         d="m 983.5,454.5 c 0,0 21,24 22,44 1,20 24,-21 26,-22 2,-1 -20,-35 -22,-46 -2,-11 -26,24 -26,24 z"
         transform="translate(-82,-144)"
         fill="#f7c4a7"
         id="path1190" />
      <polygon
         points="916,320.75 902.75,332.75 909,358 926,342 924,326 "
         fill="#f7c4a7"
         id="polygon1192" />
      <polygon
         points="647.5,514.5 639.5,498.5 616.5,498.5 625.5,520.5 "
         fill="#f7c4a7"
         id="polygon1194" />
      <path
         d="m 703.82,639.33 c 0,0 -23.82,16.59 -44.17,11.43 -20.35,-5.16 -25.88,-3.23 -28.25,3.43 -2.19,6.13 56.84,38.55 66.25,43.67 a 1.08,1.08 0 0 0 1.57,-0.7 c 0.64,-2.72 2.19,-8.55 3.85,-9 2.16,-0.58 12,-19 11.46,-26.24 -0.54,-7.24 -10.71,-22.59 -10.71,-22.59 z"
         transform="translate(-82,-144)"
         opacity="0.1"
         id="path1196" />
      <path
         d="m 702.82,639.33 c 0,0 -23.82,16.59 -44.17,11.43 -20.35,-5.16 -25.88,-3.23 -28.25,3.43 -2.19,6.13 56.84,38.55 66.25,43.67 a 1.08,1.08 0 0 0 1.57,-0.7 c 0.64,-2.72 2.19,-8.55 3.85,-9 2.16,-0.58 12,-19 11.46,-26.24 -0.54,-7.24 -10.71,-22.59 -10.71,-22.59 z"
         transform="translate(-82,-144)"
         fill="#f3b5b7"
         id="path1198" />
      <path
         d="m 899.5,599.5 -67,-9 c 0,0 -109,52 -122,53 l 3,23 h 20 c 8,0 86,-17 97,-34 a 26.78,26.78 0 0 1 19,2 c 10,5 106,36 106,36 z"
         transform="translate(-82,-144)"
         fill="#575988"
         id="path1200" />
      <path
         d="m 899.5,599.5 -67,-9 c 0,0 -109,52 -122,53 l 3,23 h 20 c 8,0 86,-17 97,-34 a 26.78,26.78 0 0 1 19,2 c 10,5 106,36 106,36 z"
         transform="translate(-82,-144)"
         opacity="0.1"
         id="path1202" />
      <polygon
         points="714.5,494.5 698.5,486.5 687.5,500.5 698.5,506.5 "
         fill="#f7c4a7"
         id="polygon1204" />
      <path
         d="m 971.5,614.5 c 0,0 -36,-30.82 -38.49,-36.41 -2.49,-5.59 -61.51,-43.59 -65.51,-44.59 -4,-1 -17,-8 -30,16 -13,24 -61,82 -61,82 0,0 15,21 20,20 5,-1 61,-48 65,-71 0,0 4,-9 13,6 9,15 67,87 78,86 0,0 43,7 52,-10 9,-17 -33,-48 -33,-48 z"
         transform="translate(-82,-144)"
         fill="#575988"
         id="path1206" />
      <path
         d="m 992,468 c 0,0 -12.5,5.5 -13.5,28.5 -1,23 -23,62 -23,62 l 2,46 c 0,0 24,24 26,39 2,15 19,25 19,25 0,0 20,-10 23,-23 3,-13 5,-45 10,-57 5,-12 2,-87 2,-87 l -15,-26 -8,-9 -21,24 c 0,0 -11.5,-15.5 -1.5,-22.5 z"
         transform="translate(-82,-144)"
         fill="#dddbe2"
         id="path1208" />
      <path
         d="m 962.5,589.5 c 0,0 -3,-36 6,-44 l 18,-51 c 0,0 6.5,-24.5 5.5,-26.5 -1,-2 -23.5,19.5 -23.5,19.5 l -15,53 4,56 z"
         transform="translate(-82,-144)"
         opacity="0.1"
         id="path1210" />
      <path
         d="m 961.5,589.5 c 0,0 -3,-36 6,-44 l 18,-51 c 0,0 7,-25 6,-27 -1,-2 -24,20 -24,20 l -15,53 4,56 z"
         transform="translate(-82,-144)"
         fill="#575988"
         id="path1212" />
      <path
         d="m 968.5,573.5 c 0,0 -50,-16 -53,-20 -3,-4 -35,-30 -46,-12 -11,18 41,23 41,23 l 53,32 z"
         transform="translate(-82,-144)"
         fill="#f7c4a7"
         id="path1214" />
      <path
         d="m 782.67,644.41 -14.8,-2.66 c 0,0 -24.24,31.05 -36.87,27.9 -12.63,-3.15 -24.25,10.44 -10.91,14.8 12.05,3.94 64.09,9.45 74,10.47 a 1.46,1.46 0 0 0 1.61,-1.42 31.84,31.84 0 0 1 2.3,-11.27 c 2.67,-6.55 0,-20.62 -0.74,-26 a 25.83,25.83 0 0 0 -2.91,-9 z"
         transform="translate(-82,-144)"
         opacity="0.1"
         id="path1216" />
      <path
         d="m 782.42,645.38 -14.8,-2.66 c 0,0 -24.24,31.05 -36.85,27.91 -12.61,-3.14 -24.25,10.44 -10.91,14.8 12.05,3.94 64.09,9.45 74,10.47 a 1.46,1.46 0 0 0 1.61,-1.42 31.84,31.84 0 0 1 2.21,-11.26 c 2.67,-6.55 0,-20.62 -0.74,-26 a 25.83,25.83 0 0 0 -2.91,-9 z"
         transform="translate(-82,-144)"
         fill="#f3b5b7"
         id="path1218" />
      <circle
         cx="909"
         cy="290"
         r="32"
         opacity="0.1"
         id="circle1220" />
      <circle
         cx="906"
         cy="290"
         r="32"
         fill="#f7c4a7"
         id="circle1222" />
      <path
         d="m 1019.5,465.5 c 0,0 38,13 38,40 0,27 -21,70 -22,105 -1,35 -56,30 -56,30 0,0 -8,-118 0,-127 8,-9 44,-44 40,-48 z"
         transform="translate(-82,-144)"
         fill="#575988"
         id="path1224" />
      <path
         d="m 1012.5,521.5 c 0,0 -14,62 -47,51 0,0 -17,25 -5,36 0,0 29,7 48,-12 19,-19 33,-26 36,-49 3,-23 5,-55 -5,-52 -10,3 -27,26 -27,26 z"
         transform="translate(-82,-144)"
         opacity="0.1"
         id="path1226" />
      <path
         d="m 1013.5,520.5 c 0,0 -14,62 -47,51 0,0 -17,25 -5,36 0,0 29,7 48,-12 19,-19 33,-26 36,-49 3,-23 5,-55 -5,-52 -10,3 -27,26 -27,26 z"
         transform="translate(-82,-144)"
         fill="#575988"
         id="path1228" />
      <path
         d="m 798.54,680 c 0,0.09 -0.06,0.2 -0.09,0.28 a 29.28,29.28 0 0 0 -1.57,5.29 c 0.24,-0.78 0.52,-1.58 0.84,-2.38 a 14.52,14.52 0 0 0 0.82,-3.19 z"
         transform="translate(-82,-144)"
         fill="#dddbe2"
         id="path1230" />
      <path
         d="m 720.59,682.51 c -4.12,-1.35 -5.85,-3.57 -5.92,-5.91 -1.7,3.26 -0.63,6.92 5.19,8.82 12.05,3.94 64.1,9.45 74,10.47 a 1.46,1.46 0 0 0 1.61,-1.43 v 0 a 1.47,1.47 0 0 0 -1.31,-1.49 c -10.86,-1.16 -61.68,-6.58 -73.57,-10.46 z"
         transform="translate(-82,-144)"
         fill="#dddbe2"
         id="path1232" />
      <path
         d="m 631.78,652.43 a 12.32,12.32 0 0 1 1,-2.12 9.75,9.75 0 0 0 -2.35,3.88 c -2.19,6.13 56.84,38.55 66.25,43.67 a 1.08,1.08 0 0 0 1.57,-0.71 v 0 a 1.08,1.08 0 0 0 -0.53,-1.2 c -10.4,-5.69 -68.1,-37.46 -65.94,-43.52 z"
         transform="translate(-82,-144)"
         fill="#dddbe2"
         id="path1234" />
      <path
         d="m 703.44,686.41 c -0.53,0.14 -1.05,0.85 -1.54,1.82 l 0.16,-0.06 c 0.44,-0.12 1.19,-1 2.1,-2.3 a 1.94,1.94 0 0 1 -0.72,0.54 z"
         transform="translate(-82,-144)"
         fill="#dddbe2"
         id="path1236" />
      <path
         d="m 983.56,462.17 c -2.82,6.22 -3.41,13.23 -5.48,19.75 -4.11,12.93 -14.42,23.63 -26.77,27.76 10.39,4.14 22.65,-0.92 30.68,-9.32 8.03,-8.4 12.74,-19.58 17.25,-30.46 11.66,7.84 10.24,25.86 14.16,39.89 a 44.24,44.24 0 0 0 23.55,28.15 42.17,42.17 0 0 0 36.07,-0.73 c -10.69,-13 -25.91,-30.93 -24.1,-48.29 1.47,-14.06 -8.62,-24.8 -7.93,-38.91 1,-20 -6.66,-30.16 -21,-43 -8.38,-7.51 4.81,-18.1 -6,-15 -4.25,1.22 -8.73,-3.33 -12.9,-1.83 -8.26,3 -17.28,1.84 -25.78,3.84 -44.18,10.38 12.37,59.07 8.25,68.15 z"
         transform="translate(-82,-144)"
         opacity="0.1"
         id="path1238" />
      <path
         d="m 984.56,461.17 c -2.82,6.22 -3.41,13.23 -5.48,19.75 -4.11,12.93 -14.42,23.63 -26.77,27.76 10.39,4.14 22.65,-0.92 30.68,-9.32 8.03,-8.4 12.74,-19.58 17.25,-30.46 11.66,7.84 10.24,25.86 14.16,39.89 a 44.24,44.24 0 0 0 23.55,28.15 42.17,42.17 0 0 0 36.07,-0.73 c -10.69,-13 -24.91,-27.93 -23.1,-45.29 1.47,-14.06 -0.72,-28.51 0,-42.61 1,-20 -8.81,-39.32 -23.16,-52.16 -8.38,-7.51 -21.47,-8.47 -25.65,-7 -8.26,3 -17.28,1.84 -25.78,3.84 -44.2,10.41 12.35,59.1 8.23,68.18 z"
         transform="translate(-82,-144)"
         fill="#fc6681"
         id="path1240" />
    </g>
  </g>
</svg>
