<?xml version="1.0" encoding="UTF-8" standalone="no"?>
<svg
   xmlns:osb="http://www.openswatchbook.org/uri/2009/osb"
   xmlns:dc="http://purl.org/dc/elements/1.1/"
   xmlns:cc="http://creativecommons.org/ns#"
   xmlns:rdf="http://www.w3.org/1999/02/22-rdf-syntax-ns#"
   xmlns:svg="http://www.w3.org/2000/svg"
   xmlns="http://www.w3.org/2000/svg"
   xmlns:sodipodi="http://sodipodi.sourceforge.net/DTD/sodipodi-0.dtd"
   xmlns:inkscape="http://www.inkscape.org/namespaces/inkscape"
   sodipodi:docname="cartoon-shoes.svg"
   inkscape:version="1.0 (4035a4fb49, 2020-05-01)"
   id="svg8"
   version="1.1"
   viewBox="0 0 361.42083 203.20001"
   height="768"
   width="1366">
  <defs
     id="defs2">
    <linearGradient
       osb:paint="solid"
       id="linearGradient2797">
      <stop
         id="stop2795"
         offset="0"
         style="stop-color:#7ad5a3;stop-opacity:1;" />
    </linearGradient>
  </defs>
  <sodipodi:namedview
     inkscape:window-maximized="1"
     inkscape:window-y="27"
     inkscape:window-x="0"
     inkscape:window-height="704"
     inkscape:window-width="1366"
     units="px"
     showgrid="false"
     inkscape:document-rotation="0"
     inkscape:current-layer="layer1"
     inkscape:document-units="px"
     inkscape:cy="227.45051"
     inkscape:cx="1051.2871"
     inkscape:zoom="0.86141545"
     inkscape:pageshadow="2"
     inkscape:pageopacity="0.0"
     borderopacity="1.0"
     bordercolor="#666666"
     pagecolor="#ffffff"
     id="base" />
  <metadata
     id="metadata5">
    <rdf:RDF>
      <cc:Work
         rdf:about="">
        <dc:format>image/svg+xml</dc:format>
        <dc:type
           rdf:resource="http://purl.org/dc/dcmitype/StillImage" />
        <dc:title></dc:title>
      </cc:Work>
    </rdf:RDF>
  </metadata>
  <g
     id="layer1"
     inkscape:groupmode="layer"
     inkscape:label="Layer 1">
    <path
       transform="scale(0.26458334)"
       id="path2809"
       d=""
       style="fill:#000000;fill-opacity:1;stroke:#000000;stroke-width:0.248622;stroke-opacity:1" />
    <path
       transform="scale(0.26458334)"
       id="path2811"
       d=""
       style="fill:#000000;fill-opacity:1;stroke:#000000;stroke-width:0.248622;stroke-opacity:1" />
    <path
       transform="scale(0.26458334)"
       id="path2813"
       d=""
       style="fill:#000000;fill-opacity:1;stroke:#000000;stroke-width:0.248622;stroke-opacity:1" />
    <path
       transform="scale(0.26458334)"
       id="path2815"
       d=""
       style="fill:#000000;fill-opacity:1;stroke:#000000;stroke-width:0.248622;stroke-opacity:1" />
    <path
       transform="scale(0.26458334)"
       id="path2817"
       d=""
       style="fill:#000000;fill-opacity:1;stroke:#000000;stroke-width:0.248622;stroke-opacity:1" />
    <path
       transform="scale(0.26458334)"
       id="path2829"
       d=""
       style="fill:#000000;fill-opacity:1;stroke:#000000;stroke-width:0.00974012;stroke-opacity:1" />
    <path
       d="m 1063.3086,56.427734 c -1.8464,-0.01626 -3.7122,0.0411 -5.5977,0.175782 -10.6695,0.762107 -21.2181,2.830376 -31.7168,4.878906 -4.1305,0.80595 -8.1683,2.044639 -12.1992,3.253906 -3.9461,1.18385 -7.4682,3.106657 -10.5722,5.69336 -6.79409,5.661679 -9.38596,5.994401 0.8085,9.392578 0.8093,0.269729 31.5246,5.550399 26.8262,15.886718 -5.2938,11.646146 -31.74172,12.931736 -28.1133,18.347656 6.1385,9.16236 43.7967,13.78101 47.9707,21.94727 1.3138,2.57028 -6.3699,21.19973 -7.3183,25.1289 -3.6713,15.20946 7.0465,15.32381 8.6367,26.45508 3.2291,22.60272 -23.1426,29.84445 -5.3984,56.92773 14.0004,21.36916 50.0841,31.79659 58.5547,55.30079 3.4763,9.64626 -17.9403,24.0092 -24.3985,29.17578 -54.5692,43.65557 -65.868,66.13762 -125.49412,82.03711 -24.95605,19.0069 -60.85334,14.92098 -41.82618,27.625 0,0 3.65062,1.60296 6.0293,3.47851 9.0381,7.12645 158.4292,-57.66153 162.2871,-29.0332 0.4348,3.22658 -131.3426,50.80569 -147.14648,55.45508 -8.1417,2.3952 -19.79988,6.04147 -17.36718,8.12304 8.38885,7.17801 2.19414,2.54037 8.38867,7.17774 4.02588,3.01383 11.91545,4.39409 16.48437,2.45508 8.8215,-3.74378 14.45204,-4.74099 23.73047,-7.31836 27.91491,-7.75419 50.10895,-10.62067 78.04685,-18.24024 32.3327,-8.81816 -3.4986,1.83303 64.2481,-17.89062 14.086,-4.10098 23.9287,-11.63822 37.4101,-17.07813 9.7785,-3.94567 19.8799,-7.1249 30.0899,-9.75976 16.2271,-4.18764 61.0085,-0.12647 62.1054,-20.75196 0.079,-1.4945 -0.1921,-14.36141 -0.2148,-14.48046 -1.9947,-10.33632 -1.1788,-24.68551 -4.1875,-34.77344 -5.3904,-18.07374 -8.2508,-44.94472 -19.5566,-58.08399 -11.9012,-13.83103 -57.7591,-34.11066 -50.9825,-50.92773 8.2723,-20.52842 5.5536,-50.96326 3.8516,-72.23828 -1.6362,-20.45328 -5.6082,-41.51506 -17.8926,-58.55469 -4.0355,-5.5977 -9.5516,-9.975679 -14.6387,-14.638671 -19.8308,-18.178264 -43.152,-34.902652 -70.8476,-35.146485 z"
       transform="scale(0.26458334)"
       style="fill:none;stroke:#000000;stroke-width:0.999999px;stroke-linecap:butt;stroke-linejoin:miter;stroke-opacity:1"
       id="path2833" />
    <ellipse
       ry="1.8378239"
       rx="2.8863966"
       cy="46.406116"
       cx="277.82755"
       id="path2835"
       style="fill:#ffffff;fill-opacity:1;stroke:#000000;stroke-width:0.264583;stroke-opacity:1" />
    <ellipse
       ry="0.79620141"
       rx="0.82557493"
       cy="46.735958"
       cx="276.57385"
       id="path3080"
       style="fill:#000000;fill-opacity:1;stroke:#000000;stroke-width:0.264583;stroke-opacity:1" />
    <ellipse
       style="fill:#ffffff;fill-opacity:1;stroke:#000000;stroke-width:0.264583;stroke-opacity:1"
       id="ellipse3082"
       cx="289.79132"
       cy="45.09053"
       rx="2.8863966"
       ry="1.8378239" />
    <ellipse
       style="fill:#000000;fill-opacity:1;stroke:#000000;stroke-width:0.264583;stroke-opacity:1"
       id="ellipse3084"
       cx="288.53763"
       cy="45.420372"
       rx="0.82557493"
       ry="0.79620141" />
    <g
       transform="translate(19.398269,-16.045744)"
       id="g3120">
      <g
         id="g3110"
         transform="matrix(-0.36705098,-0.12892849,0.12892849,-0.36705098,206.9367,135.2832)"
         style="fill:#000000;fill-opacity:1">
        <path
           d="m 72.724253,66.235707 c 6.056718,-6.717692 13.703446,-11.726533 21.295913,-16.523114 -0.167006,0.112024 -0.678848,0.429978 -0.50102,0.336077 1.734129,-0.915701 3.432882,-1.897743 5.172554,-2.802868 6.8674,-3.572996 13.94001,-6.701536 21.08827,-9.661055 6.87077,-2.782027 13.93516,-5.033117 21.06487,-7.041899 4.57467,-1.35714 9.21766,-2.445335 13.87848,-3.457184 3.72327,-0.584129 7.33087,-1.672279 11.00066,-2.497421 2.91592,-0.564464 5.85998,-1.108809 8.84076,-1.125361 1.5671,-0.0087 2.57962,0.111106 4.11631,0.243327 2.30094,0.220542 4.45013,1.080274 5.40935,3.327065 0.14956,0.350305 0.22636,0.727386 0.33954,1.091077 -0.0126,0.424023 0.065,0.860452 -0.0377,1.272064 -0.8293,3.326807 -4.86543,7.067937 -7.35997,9.2474 -2.67903,2.365926 -5.95081,3.928041 -8.6817,6.219177 -2.05382,1.723084 -3.46189,3.285813 -5.33644,5.22255 -3.38116,3.753372 -6.90119,7.433026 -9.77065,11.606644 -0.87541,1.155038 -0.98903,2.209801 -1.24175,3.556702 -0.57134,1.747341 -0.35663,3.451888 -0.12576,5.233344 0.49843,2.975336 1.50413,5.84079 2.49239,8.682686 0.84791,2.320847 1.9737,4.485715 3.54805,6.389045 0.77987,0.945217 1.91783,1.768598 2.25071,3.009813 0.18163,0.677229 0.099,1.056254 0.0569,1.751394 -0.40034,1.756863 -1.14578,3.403157 -1.58282,5.149512 -0.2151,1.209082 -0.37436,2.536964 0.2765,3.653212 0.1793,0.307507 0.41954,0.575154 0.62931,0.862729 1.52462,1.735567 3.34939,3.167277 5.06664,4.702427 0.47356,0.47595 1.07521,0.99294 1.34029,1.63646 0.69717,1.6925 0.26423,3.87882 -0.53597,5.44472 -0.4306,0.84265 -1.05893,1.56863 -1.58839,2.35293 -2.16651,2.48174 -4.63308,4.71016 -7.351,6.57725 -0.9923,0.68166 -1.9465,1.46309 -3.06271,1.91407 -0.73203,0.29578 1.25508,-0.95818 1.88261,-1.43727 -1.34153,0.60516 -2.68306,1.21033 -4.0246,1.8155 -5.44284,2.45689 -11.09645,4.34534 -16.78486,6.12878 -3.04458,0.85217 -5.96661,2.0189 -8.79048,3.42841 -2.66525,1.36237 -5.44753,2.4749 -8.29245,3.39799 -1.40197,0.49966 -2.82398,0.94423 -4.22546,1.44459 -3.55823,1.45085 -6.6657,3.55152 -9.33295,6.21195 -0.63764,0.66263 -1.2904,1.31015 -2.01211,1.88103 0,0 6.90385,-2.89287 6.90385,-2.89287 v 0 c 0.67294,-0.61543 1.3088,-1.26745 1.95517,-1.91046 0.47664,-0.45174 0.95239,-0.90187 1.47104,-1.30609 0.16473,-0.12839 0.68516,-0.47627 0.50417,-0.37203 -5.12953,2.9545 -7.71945,4.72288 -5.29815,3.08351 1.37253,-0.6536 2.89731,-0.95178 4.28815,-1.57116 2.86712,-0.92446 5.68479,-2.00735 8.39207,-3.33378 2.85775,-1.45189 5.77402,-2.76936 8.87084,-3.64147 5.81574,-1.8572 11.60147,-3.79338 17.16582,-6.33459 6.71815,-2.96602 4.44825,-1.81577 13.66918,-7.14568 3.97347,-2.29674 7.49363,-5.30224 10.43171,-8.82177 0.53664,-0.85732 1.17912,-1.65689 1.60992,-2.57199 0.85773,-1.82195 1.19987,-4.2068 0.44511,-6.12605 -0.3087,-0.78494 -0.85309,-1.23872 -1.41564,-1.81395 -1.67789,-1.497619 -3.51024,-2.839348 -4.96799,-4.568179 -0.16676,-0.24367 -0.36131,-0.470484 -0.50024,-0.731019 -0.53241,-0.99848 -0.25924,-2.206443 -0.0477,-3.246433 0.47065,-1.762508 1.20857,-3.456346 1.45686,-5.272709 -0.003,-2.712047 -0.79437,-3.327348 -2.57505,-5.221334 -1.5273,-1.826566 -2.71207,-3.860516 -3.49452,-6.121008 -1.01314,-2.781776 -1.98164,-5.615827 -2.3633,-8.563771 -0.18024,-1.81083 -0.19862,-3.32461 0.33387,-5.08185 0.24688,-1.165165 0.52268,-2.253133 1.25242,-3.235186 2.71554,-4.05583 6.01697,-7.684227 9.31563,-11.26656 2.31341,-2.308168 3.07685,-3.204533 5.59209,-5.208654 2.79536,-2.227336 6.02272,-3.882128 8.68265,-6.293801 2.63912,-2.402146 6.66613,-6.248278 7.34293,-9.908218 0.0903,-0.488616 -0.0281,-0.993403 -0.042,-1.490108 -0.13762,-0.40499 -0.23731,-0.824925 -0.41287,-1.214976 -1.09513,-2.433189 -3.35221,-3.597441 -5.92629,-3.834396 -1.40998,-0.113351 -2.80488,-0.24694 -4.22138,-0.267159 -2.99442,-0.04274 -5.94528,0.455544 -8.88151,0.992258 -3.67535,0.77286 -7.26681,1.89133 -10.98262,2.480966 -4.71628,1.053997 -9.42293,2.156239 -14.05502,3.541814 -7.29438,2.086243 -14.51475,4.429152 -21.53637,7.318294 -12.68309,5.265753 -25.148211,11.096536 -36.7084,18.571526 -7.8428,4.997729 -15.650403,10.242656 -22.068423,17.044295 0,0 6.702933,-2.909168 6.702933,-2.909168 z"
           id="path835"
           style="fill:#000000;fill-opacity:1;stroke:#000000;stroke-width:0.264583;stroke-opacity:1" />
        <path
           d="m 67.096843,69.128113 c -0.801458,2.805541 -1.287571,5.767869 -0.815724,8.679323 0.09436,0.582202 0.257241,1.151207 0.385861,1.726811 0.878273,2.984889 2.412317,5.709277 3.97992,8.376259 1.170303,1.93513 2.331424,3.876177 3.571643,5.767591 1.099137,1.616953 2.219015,3.220556 3.354265,4.812472 1.563884,1.990381 2.939659,4.117741 4.280972,6.261561 1.48657,2.28058 2.707132,4.69866 3.794295,7.18997 1.161841,2.65999 2.217679,5.36406 3.337298,8.04161 0.638064,1.75892 1.456047,3.43071 2.396611,5.04473 0.757913,1.11134 1.260253,2.35596 1.861249,3.55023 0.531802,1.04299 0.857493,2.16948 1.327526,3.2398 1.067168,1.8812 2.125003,3.76675 3.098138,5.70055 0.636215,1.22775 1.207895,2.49307 1.451436,3.86027 0.07884,0.49639 0.0711,0.99817 0.04926,1.4982 -0.0123,0.2876 -0.01688,0.57543 -0.02064,0.86325 -0.05439,0.41302 0.133329,0.74036 0.340688,1.08426 0.256595,0.30968 0.497491,0.62978 0.714899,0.96797 0,0 6.03785,-3.53294 6.03785,-3.53294 v 0 c -0.21826,-0.3252 -0.44904,-0.64104 -0.68955,-0.95021 -0.15098,-0.2517 -0.16944,-0.45752 -0.14077,-0.75046 0.003,-0.28617 0.0119,-0.57224 0.0141,-0.85843 -0.007,-0.54052 -0.0577,-1.08006 -0.17215,-1.6092 -0.3378,-1.40173 -0.97606,-2.6929 -1.66707,-3.95276 -1.00532,-1.89602 -2.00504,-3.79677 -2.9809,-5.70676 -0.44656,-1.09533 -0.803748,-2.22851 -1.33404,-3.28797 -0.606594,-1.20788 -1.192053,-2.42596 -1.921917,-3.56714 -0.933559,-1.57955 -1.785789,-3.20149 -2.440075,-4.91994 -1.160619,-2.66002 -2.236015,-5.35539 -3.40356,-8.01238 -1.112655,-2.51419 -2.22385,-5.03866 -3.76826,-7.32623 -1.391711,-2.123782 -2.781623,-4.250603 -4.259768,-6.315623 -1.138626,-1.578891 -2.25126,-3.177099 -3.358126,-4.778264 -1.240459,-1.879074 -2.42384,-3.796277 -3.60068,-5.715649 -1.561722,-2.584283 -3.137927,-5.208384 -3.951436,-8.141819 -0.115596,-0.552567 -0.26394,-1.099283 -0.346789,-1.657697 -0.424403,-2.860506 0.05699,-5.774031 1.088567,-8.453229 0,0 -6.213137,2.871844 -6.213137,2.871844 z"
           id="path3086"
           style="fill:#000000;fill-opacity:1;stroke:#000000;stroke-width:0.264583;stroke-opacity:1" />
        <path
           d="m 70.512196,68.594287 c -0.03265,-0.276572 -0.04498,-0.555117 -0.05169,-0.833377 -0.0026,-0.146809 -0.0013,-0.293645 2.64e-4,-0.440457 5.29e-4,-0.101452 -3.4e-5,-0.202909 2.65e-4,-0.304366 0.04214,-0.104471 0.134781,-0.194363 0.210828,-0.282607 0.06117,-0.06941 0.133958,-0.142962 0.209489,-0.19489 0.02807,-0.09032 0.104431,-0.06423 0.156027,-0.131836 0.122473,-0.107564 0.173898,-0.263078 0.272407,-0.388596 0.0131,-0.01469 0.02622,-0.02939 0.03932,-0.04408 0,0 -1.751983,0.753194 -1.751983,0.753194 v 0 c -0.01143,0.01746 -0.02289,0.03491 -0.03433,0.05236 -0.079,0.131596 -0.167032,0.253452 -0.296977,0.340381 -0.07603,0.03457 -0.08717,0.09984 -0.153802,0.143383 -0.06135,0.07403 -0.146039,0.130149 -0.190159,0.221642 -0.08565,0.124433 -0.177144,0.236066 -0.161777,0.397467 1.57e-4,0.101757 -0.0011,0.20351 -2.32e-4,0.305261 0.0026,0.146478 0.0084,0.292846 0.01617,0.439145 0.01386,0.281564 0.03383,0.562663 0.05043,0.844058 0,0 1.685607,-0.876689 1.685607,-0.876689 z"
           id="path3088"
           style="fill:#000000;fill-opacity:1;stroke:#000000;stroke-width:0.264583;stroke-opacity:1" />
        <path
           d="m 68.445324,69.604791 c -0.156975,-0.324294 -0.225592,-0.678219 -0.298178,-1.028049 -0.04683,-0.293402 -0.0972,-0.586494 -0.129445,-0.881989 -0.01873,-0.253984 -0.0354,-0.510037 -0.01939,-0.764574 0.0045,-0.02627 0.0048,-0.05364 0.01355,-0.07882 0.01659,-0.04785 0.06459,-0.08347 0.111649,-0.09601 0.01582,-0.0042 0.06274,-0.01521 0.04866,-0.0069 -0.523531,0.311187 -1.053465,0.611471 -1.580198,0.917207 0.206947,-0.097 0.425048,-0.173228 0.638286,-0.257196 0.749875,-0.362458 1.456799,-0.828506 2.176513,-1.233069 0.464415,-0.261054 -0.923615,0.531362 -1.381286,0.804068 -0.124206,0.07401 0.260151,-0.126465 0.392792,-0.184007 0.43737,-0.182091 0.899107,-0.273111 1.366655,-0.332838 0.441333,-0.03912 0.882021,-0.05014 1.320123,-0.119245 0.334388,-0.06013 0.671182,-0.101851 1.010094,-0.124097 0.202219,0.01252 0.444866,-0.06912 0.63249,0.02788 0.125412,0.158683 0.148198,0.367546 0.163202,0.56303 0.02349,0.156507 -0.08633,0.211926 -0.185314,0.311092 -0.173183,0.18156 -0.35606,0.351983 -0.545549,0.516147 -0.33442,0.32685 -0.607772,0.709149 -0.896279,1.075629 -0.07202,0.09266 -0.143455,0.185772 -0.216048,0.277979 -0.210595,0.267494 -0.209487,0.253817 -0.403479,0.521182 -0.121497,0.167446 -0.226653,0.340471 -0.366763,0.492831 0.519213,-0.312827 1.038429,-0.625652 1.557642,-0.93848 0.01646,0.02252 0.02627,0.08319 0.04935,0.06753 0.02887,-0.01958 0.0783,-0.361942 0.08433,-0.388212 0.04847,-0.21135 0.140851,-0.494848 0.203676,-0.697953 0.253492,-0.779224 0.566885,-1.541692 0.945277,-2.268627 0.01252,-0.02291 0.27006,-0.501978 0.309917,-0.549079 0.01386,-0.01638 0.08307,-0.01196 0.06435,-0.0016 -0.612073,0.343032 -1.275625,0.600805 -1.850787,1.002673 -0.12927,0.09032 -0.130902,0.286962 -0.198731,0.429329 -0.0858,0.180086 -0.174752,0.358653 -0.262128,0.53798 -0.450741,0.89381 -0.925959,1.775304 -1.437235,2.63598 0.299691,-0.06118 -0.332777,0.310716 -0.233021,0.253802 0.534413,-0.304893 1.097743,-0.56524 1.599142,-0.921835 0.05298,-0.03768 -0.02669,-0.127564 -0.03257,-0.192313 -0.03869,-0.425405 -0.02082,-0.509627 -0.0072,-0.964705 0.05857,-0.863505 0.177361,-1.72058 0.313862,-2.574629 0.0418,-0.143097 0.01603,-0.334166 0.109908,-0.462544 0.01582,-0.02162 0.08647,-0.06302 0.06351,-0.04922 -1.55938,0.937104 -1.434875,1.536063 -1.554869,0.915602 0.102484,0.846336 -0.01783,1.710907 -0.09434,2.5566 -0.03727,0.331824 -0.05355,0.66594 -0.09251,0.997595 -0.01815,0.154506 -0.04911,0.238676 -0.0131,0.22043 0.594511,-0.301257 1.168128,-0.642083 1.752193,-0.963126 0.170688,-0.616273 0.389914,-1.217737 0.634936,-1.807945 0.225761,-0.52618 0.52305,-1.014262 0.82001,-1.501852 -0.617667,0.334912 -1.274786,0.605557 -1.853001,1.004739 -0.161041,0.111178 -0.206539,0.332621 -0.317577,0.49376 -0.149336,0.216718 -0.304448,0.429499 -0.463248,0.639379 -0.495218,0.654516 -1.032915,1.272408 -1.570268,1.892052 -0.567854,0.586671 -1.046051,1.290566 -1.736828,1.744353 0.502404,-0.296088 1.005403,-0.591159 1.507209,-0.88826 0.0079,-0.0047 -0.05402,0.04031 -0.06694,0.01852 -0.04638,-0.07826 -0.0088,-0.201636 0.0056,-0.279604 0.08392,-0.283064 0.162878,-0.566065 0.204954,-0.858583 0.04575,-0.310372 0.09927,-0.618903 0.129935,-0.931791 0.0452,-0.296426 0.140705,-0.579067 0.227732,-0.864606 0.01267,-0.02876 0.01746,-0.06249 0.03799,-0.08628 0.01363,-0.01579 0.07549,-0.03522 0.0576,-0.0245 -0.525291,0.315042 -1.054108,0.624168 -1.580285,0.937723 -0.01154,0.0069 0.02286,-0.01913 0.0362,-0.0176 0.03731,0.0043 0.08372,0.06319 0.103156,0.08333 0.186743,0.205322 0.376542,0.404206 0.527767,0.637841 0.139031,0.177332 0.116255,0.413552 0.219668,0.60216 0.05106,0.04353 0.136575,0.143979 0.225798,0.09665 0.608946,-0.323043 1.198771,-0.681345 1.787398,-1.040083 0.08066,-0.04916 0.145253,-0.120808 0.217426,-0.18175 0.263935,-0.222869 0.233924,-0.198953 0.49719,-0.431112 0.422129,-0.346731 0.841594,-0.696164 1.247277,-1.062069 0.109858,-0.0932 0.159232,-0.143209 0.280506,-0.216501 0.04234,-0.02559 0.174633,-0.09292 0.131977,-0.06787 -2.5224,1.481719 -1.885797,1.06181 -1.285999,0.768575 0.734083,-0.373396 1.51625,-0.697328 2.129684,-1.252943 0.189373,-0.179773 0.407061,-0.323138 0.584237,-0.515511 0.171714,-0.171873 0.304117,-0.36771 0.428418,-0.574784 0.159139,-0.241083 0.185238,-0.531331 0.311621,-0.786468 0.104812,-0.168267 0.207373,-0.349541 0.360448,-0.478973 0.195461,-0.139184 0.398346,-0.267655 0.589557,-0.412745 0.038,-0.0249 0.0773,-0.04793 0.113996,-0.07471 0.196953,-0.143709 0.03126,-0.04553 0.238403,-0.173263 0.03853,-0.02376 0.156776,-0.09052 0.117636,-0.0678 -1.530307,0.888574 -2.030531,1.161343 -1.428932,0.832146 0.868764,-0.420253 1.508768,-0.67955 2.045933,-1.344573 0.107188,-0.104399 0.135702,-0.247795 0.213841,-0.36984 0.123172,-0.19595 0.240181,-0.396838 0.349904,-0.600765 0.101015,-0.19734 0.224359,-0.379307 0.355555,-0.557311 0.15707,-0.245588 0.334383,-0.47767 0.482613,-0.728646 0.149532,-0.242044 0.277154,-0.506188 0.468432,-0.719312 0.07562,-0.07473 0.03666,-0.04179 0.115779,-0.100148 0,0 -1.761673,0.724072 -1.761673,0.724072 v 0 c -0.0663,0.07923 -0.03282,0.03749 -0.100044,0.125537 -0.157459,0.236993 -0.294622,0.48655 -0.444532,0.728279 -0.164161,0.242835 -0.331086,0.483936 -0.499708,0.723664 -0.129323,0.183542 -0.237532,0.379601 -0.345993,0.576022 -0.119179,0.201586 -0.231365,0.407043 -0.358439,0.603877 -0.06257,0.123452 -0.126468,0.238202 -0.227703,0.335989 -0.481393,0.52705 -1.680419,1.010246 1.185426,-0.586816 -0.78794,0.411421 -1.567148,0.840554 -2.280245,1.37042 -0.201102,0.140052 -0.413819,0.271547 -0.584573,0.448762 -0.127217,0.165783 -0.241258,0.342337 -0.324528,0.534665 -0.09888,0.257339 -0.154437,0.532347 -0.322019,0.758838 -0.131286,0.194522 -0.282194,0.373388 -0.449842,0.537901 -0.19196,0.171973 -0.397507,0.328535 -0.591121,0.49875 -0.03279,0.02402 -0.06456,0.04954 -0.09839,0.07211 -0.02876,0.01918 -0.119182,0.07015 -0.08915,0.05302 2.726883,-1.555412 1.915221,-1.047018 1.293421,-0.765707 -0.797571,0.441341 -1.668486,0.788019 -2.342256,1.411287 -0.399568,0.359622 -0.814043,0.701739 -1.224171,1.04915 -0.180113,0.154554 -0.322469,0.280474 -0.509374,0.42614 -0.07831,0.06103 -0.32722,0.223393 -0.239217,0.177435 0.652809,-0.340921 1.839171,-1.302768 1.383689,-0.697595 -0.09597,-0.135533 -0.08428,-0.470643 -0.237654,-0.601829 -0.157885,-0.237696 -0.342787,-0.451384 -0.530871,-0.665446 -0.02246,-0.02797 -0.19938,-0.25486 -0.24362,-0.233 -1.427031,0.705126 -1.530525,0.377227 -1.750211,1.132444 -0.08499,0.293235 -0.168339,0.587737 -0.204108,0.891984 -0.03458,0.310975 -0.09637,0.616802 -0.141361,0.926182 -0.05105,0.291986 -0.141201,0.573934 -0.198345,0.864537 -0.0804,1.337638 1.376076,0.0079 1.995625,-0.381895 0.61572,-0.500761 1.080955,-1.157509 1.613831,-1.739601 0.707345,-0.835631 1.405522,-1.676381 2.051278,-2.561222 0.128024,-0.175424 0.592693,-0.529341 0.375541,-0.532395 -0.54996,-0.0077 -1.044934,0.343766 -1.567405,0.515647 -0.278487,0.493662 -0.561424,0.985517 -0.776724,1.511435 -0.242744,0.602898 -0.446301,1.219885 -0.678283,1.826699 0.551278,-0.24221 1.104887,-0.479179 1.653834,-0.726625 0.0052,-0.0024 -0.0056,-0.01056 -0.0057,-0.0163 -0.0011,-0.04763 5.3e-4,-0.09529 0.0021,-0.142913 0.01058,-0.325728 0.03401,-0.650909 0.05351,-0.976164 0.03545,-0.516525 0.0773,-1.032476 0.114697,-1.548842 0.01773,-0.244869 0.05259,-0.639344 0.03098,-0.897302 -0.0077,-0.09177 -0.03574,-0.180684 -0.05362,-0.271026 -0.0453,-0.06243 -0.0656,-0.219036 -0.135906,-0.187294 -1.48903,0.672275 -1.682816,0.552845 -1.784149,1.58245 -0.09864,0.853355 -0.190259,1.707541 -0.25387,2.564368 -0.01397,0.266351 -0.05199,0.750332 -0.02257,1.03079 0.0123,0.117335 -0.03574,0.375563 0.07826,0.345175 1.234268,-0.328988 1.523032,-0.391287 1.926374,-1.120925 0.467291,-0.86877 0.931521,-1.739197 1.377481,-2.619182 0.09445,-0.183031 0.188622,-0.366205 0.283343,-0.549098 0.07807,-0.150746 0.404741,-0.45607 0.235029,-0.451816 -0.562147,0.01408 -1.081482,0.309732 -1.615329,0.48641 -0.01463,0.0048 0.01397,0.03133 0.008,0.04554 -0.0798,0.18968 -0.215894,0.352542 -0.286342,0.546913 -0.36575,0.741008 -0.674021,1.510448 -0.931209,2.295779 -0.08961,0.283562 -0.350089,0.965274 -0.273056,1.263528 0.01606,0.06222 0.05029,0.186653 0.10848,0.159377 0.587224,-0.275254 1.114954,-0.662773 1.672431,-0.994159 0.299178,-0.436954 0.605687,-0.867558 0.945242,-1.274831 0.296995,-0.369983 0.591397,-0.747355 0.948775,-1.062053 0.189563,-0.170969 0.372531,-0.349446 0.543023,-0.539602 0.115276,-0.143714 0.156805,-0.272955 0.120917,-0.456727 -0.03499,-0.243504 -0.08843,-0.488442 -0.239633,-0.689041 -0.03493,-0.03435 -0.06388,-0.07611 -0.104791,-0.103052 -0.168799,-0.111165 -0.427685,-0.01529 -0.61256,-0.03709 -0.346949,0.01767 -0.692595,0.05237 -1.034222,0.117297 -0.439397,0.07576 -0.878192,0.110813 -1.323666,0.133652 -0.47222,0.04713 -0.941668,0.114403 -1.387493,0.285726 -0.801074,0.295683 -1.466721,0.788734 -2.231131,1.210265 -0.468252,0.258215 0.92705,-0.533212 1.390197,-0.800478 0.112374,-0.06485 -0.405802,0.232648 -0.339944,0.189563 -0.200634,0.09819 -0.419103,0.174858 -0.630021,0.240192 -0.668178,0.384085 -1.755111,0.479173 -1.776865,1.31183 0.0019,0.262861 0.01061,0.525923 0.03608,0.78766 0.04029,0.298643 0.09303,0.595654 0.144161,0.892561 0.07765,0.36358 0.174154,0.722617 0.308234,1.069988 0,0 1.65168,-0.93254 1.65168,-0.93254 z"
           id="path3090"
           style="fill:#000000;fill-opacity:1;stroke:#000000;stroke-width:0.264583;stroke-opacity:1" />
      </g>
      <path
         style="fill:#00ffff;fill-opacity:1;stroke:#000000;stroke-width:0.466045;stroke-opacity:1"
         d="m 611.82548,400.39481 c -14.19607,-0.61627 -26.78875,-1.81435 -48.00259,-4.56699 -6.77065,-0.87854 -11.8301,-2.20245 -16.28777,-4.26202 -5.24718,-2.42435 -7.01446,-4.4561 -7.01446,-8.06418 0,-4.84514 8.62294,-10.07645 23.15421,-14.04704 9.28491,-2.53706 21.92586,-8.63418 33.14655,-15.9876 7.04076,-4.61413 9.09261,-8.73033 9.90555,-19.87149 0.58249,-7.98272 0.0222,-13.43812 -1.93605,-18.8499 -1.74021,-4.80931 -1.68039,-5.08035 2.3085,-10.46016 4.30702,-5.80888 4.33571,-7.43295 0.26023,-14.73115 -2.83523,-5.07723 -3.38797,-7.17164 -2.55708,-9.68924 1.1115,-3.3679 6.87802,-7.40493 14.94566,-10.46317 4.60484,-1.74558 14.33654,-2.44475 34.02125,-2.44423 9.09952,2.4e-4 18.01262,-0.20398 19.8069,-0.45383 1.79427,-0.24985 7.14213,-0.46389 11.88413,-0.47565 8.18815,-0.0203 14.50342,-0.77492 17.90112,-2.13904 0.77023,-0.30924 0.84743,-0.20529 0.57169,0.76969 -1.06768,3.7751 -1.1532,5.61349 -0.48834,10.49735 0.38016,2.79248 0.98875,8.01331 1.35243,11.60186 0.36368,3.58854 0.87491,7.57322 1.13605,8.85484 0.26114,1.28163 0.7928,6.83921 1.18147,12.35018 1.13925,16.15337 1.63242,18.92316 6.33018,35.55176 4.39384,15.55279 5.62335,25.754 3.75764,31.17679 -1.44909,4.21185 -2.33038,5.51512 -4.74396,7.01549 -1.26386,0.78565 -2.29792,1.67918 -2.29792,1.98563 0,0.80823 -1.39213,1.88747 -3.23205,2.50564 -0.88049,0.29583 -1.92909,0.83246 -2.33022,1.19252 -1.15439,1.03619 -10.7269,4.16348 -19.85357,6.48606 -18.6347,4.7422 -49.75205,7.5236 -72.91955,6.51788 z"
         id="path3112"
         transform="scale(0.26458334)" />
    </g>
    <ellipse
       ry="5.7949877"
       rx="3.8458807"
       cy="64.087112"
       cx="282.48831"
       id="path3122"
       style="fill:#ffffff;fill-opacity:1;stroke:#000000;stroke-width:0.264583;stroke-opacity:1" />
    <path
       id="path3136"
       d="m 284.62114,50.010297 c -0.78654,0.419735 -1.60045,0.780882 -2.40549,1.162216 -0.65392,0.309751 -1.29681,0.748776 -1.86305,1.134726 -0.14318,0.0976 0.0362,0.346116 0.0811,0.513495 0.67787,2.530321 1.43925,2.698819 3.72839,3.323129 0.95587,0.260692 -0.2835,0.08784 0.64841,0.243156 0.34832,0.05805 0.79276,-0.188767 0.88849,-0.564269 0.14748,-0.578468 -0.27394,-1.114174 -0.64745,-1.487696 -0.23656,-0.236552 -0.69271,-0.709874 -1.09857,-0.567363 -0.0803,0.02819 0.019,0.172326 0,0.255289 -0.048,0.210563 -0.48662,0.423968 -0.61306,0.613062 -0.0925,0.138348 -0.32161,1.202263 -0.32161,1.450161 0,0.09997 0.0296,-0.270457 0.12958,-0.270457"
       style="fill:none;stroke:#000000;stroke-width:0.215354px;stroke-linecap:butt;stroke-linejoin:miter;stroke-opacity:1" />
    <path
       id="path3138"
       d="m 284.23143,53.802988 c 0.12994,-0.405638 0.0349,-0.831141 0.076,-1.242502 0.0336,-0.336524 0.16957,-0.63772 0.20701,-0.972987 0.0581,-0.520607 -0.0497,-1.261184 0.10671,-1.577202"
       style="fill:none;stroke:#000000;stroke-width:0.264583px;stroke-linecap:butt;stroke-linejoin:miter;stroke-opacity:1" />
    <path
       id="path3140"
       d="m 276.83405,40.226264 c 1.48418,-1.740167 0.91689,-0.999723 1.14274,0.59712 0.0642,0.454313 0.42449,0.889304 0.60309,1.305253 0.3652,0.85049 0.21188,0.123759 0.4005,-0.517499 0.12896,-0.438475 0.24053,-0.883401 0.40322,-1.310507 0.30642,-0.804342 0.90729,-1.242828 0.90729,-2.096572 0,-0.502981 0.27977,0.966782 0.39325,1.456798 0.16015,0.691582 0.37658,1.654766 0.50403,2.419398 0.0145,0.08727 0.0877,0.639831 0.16724,0.592408 0.893,-0.532432 1.3998,-2.616544 1.78091,-3.426447 0.36849,-0.783048 0.32208,-0.06388 0.82439,-0.324205 0.32216,-0.166949 0.48712,-0.629248 0.80497,-0.804963 0.45955,-0.254061 1.4006,2.637621 1.54778,3.079195 0.0193,0.058 0.10073,0.532643 0.24011,0.393033 0.48795,-0.488749 0.66943,-1.536803 0.88297,-2.146044 0.0598,-0.170492 0.34142,0.333103 0.34142,0.468099 0,0.239609 0.18597,-0.442024 0.29313,-0.656336 0.37074,-0.741487 0.79955,-1.821702 1.51212,-2.318592 0.42077,-0.293386 0.585,1.855621 1.41941,1.855621 0.952,0 1.26572,-1.692077 2.08997,-2.115442 0.66646,-0.342312 1.43857,1.395373 1.92381,1.76035 0.84117,0.632669 2.16437,-0.218051 2.45915,-0.09893 0.53692,0.216966 0.26029,0.919535 0.57838,1.163693 0.0522,0.04005 1.04354,-1.446784 1.15675,-1.559997 0.65829,-0.658294 0.0148,0.127323 0.26864,-0.05728 0.6945,-0.505126 1.82967,-2.090835 2.6939,-2.193089 0.78613,-0.09301 0.45318,4.106636 0.54899,4.781791 0.0375,0.264084 -0.063,0.582573 0.0997,0.793957 0.11382,0.147918 2.19337,-0.206415 2.59434,0.09943 0.43355,0.330673 0.38449,0.619448 0.50406,1.073086 0.0767,0.291066 0.32345,0.489017 0.40188,0.794962 0.15303,0.597181 0,1.391145 0,2.009995 0,3.178635 1.20512,6.173007 1.20512,9.286404 0,0.537499 0.17502,1.456576 0,1.928392 -0.13806,0.372282 -0.50406,0.622636 -0.56208,1.002197 -0.0718,0.4699 -0.31769,4.937426 -0.10081,5.603158 0.16412,0.503766 2.21263,0.591015 0.82542,1.334"
       style="fill:none;stroke:#000000;stroke-width:0.264583px;stroke-linecap:butt;stroke-linejoin:miter;stroke-opacity:1" />
    <path
       transform="scale(0.26458334)"
       id="path3174"
       d="m 1160.564,237.85714 c -0.1987,-0.51777 -0.2285,-5.31771 -0.066,-10.66656 0.2671,-8.80626 0.424,-9.93383 1.6598,-11.93347 1.2866,-2.08177 1.3433,-2.60763 0.99,-9.17859 -0.2061,-3.83366 -1.2006,-11.37969 -2.21,-16.76895 -1.0899,-5.81934 -2.0303,-13.30739 -2.3156,-18.43856 -0.4573,-8.2259 -1.3984,-12.64222 -3.1417,-14.74273 -0.4091,-0.49297 -2.3306,-0.74952 -5.6139,-0.74952 h -4.9918 l -0.014,-7.89508 c -0.014,-7.9369 -0.5419,-11.96673 -1.7211,-13.14591 -0.451,-0.45105 -1.2015,-0.36294 -2.5787,0.30271 -2.5803,1.24721 -10.2515,8.07015 -12.2602,10.90441 -1.3857,1.95525 -1.6241,2.09203 -1.7841,1.02381 -0.3446,-2.29976 -1.6055,-2.77237 -5.1365,-1.9253 -4.249,1.01933 -5.5762,0.53552 -8.2642,-3.01257 -1.2453,-1.64376 -2.9512,-3.30168 -3.7909,-3.68427 -1.3911,-0.63383 -1.6927,-0.50744 -3.3964,1.42351 -1.0284,1.16551 -2.6186,3.09919 -3.5338,4.29706 -0.9152,1.19787 -2.0695,2.17795 -2.5652,2.17795 -0.52,0 -1.5177,-1.39407 -2.3589,-3.29626 -0.8018,-1.81294 -1.8695,-3.45427 -2.3728,-3.6474 -1.3275,-0.50938 -2.9215,1.1903 -5.1532,5.49455 -1.2332,2.37862 -2.3873,3.85114 -3.1027,3.95889 -0.7917,0.11924 -1.4515,1.13271 -2.1632,3.32267 -1.1559,3.55649 -1.6148,4.24206 -2.0363,3.0417 -3.8674,-11.0141 -6.0049,-13.47097 -8.4601,-9.72391 -0.6273,0.9573 -1.3914,1.4326 -2.0333,1.26475 -1.6427,-0.42958 -2.1076,0.17954 -4.3114,5.64911 -2.4059,5.97133 -3.8116,8.29531 -4.2332,6.99866 -0.1516,-0.46625 -0.8465,-3.66314 -1.5444,-7.10421 -0.6978,-3.44106 -1.4056,-6.72572 -1.5729,-7.29923 -0.4346,-1.49016 -2.0113,-1.29765 -2.0113,0.24558 0,0.70858 -0.7192,2.51548 -1.5982,4.01535 -0.8789,1.49987 -2.0511,4.19107 -2.6047,5.98045 l -1.0067,3.25341 -0.9703,-1.87648 c -0.5337,-1.03206 -0.9704,-3.25557 -0.9704,-4.94113 0,-2.56353 -0.1948,-3.11561 -1.1917,-3.37629 -1.4236,-0.37229 -1.397,-0.0433 -0.2615,-3.22597 1.6514,-4.62903 2.0269,-7.77414 1.1342,-9.50036 -1.187,-2.29543 -7.5036,-5.33237 -18.4504,-8.87071 -15.1729,-4.90434 -18.241,-5.99046 -22.1736,-7.8497 -3.7679,-1.78138 -7.3213,-4.3665 -7.3213,-5.32638 0,-0.74053 3.5321,-2.43885 9.8316,-4.72726 10.6427,-3.86615 16.1299,-7.31385 18.2479,-11.465589 3.4668,-6.795429 -3.242,-11.98314 -21.3678,-16.522988 -7.7527,-1.941775 -11.47852,-3.294893 -11.47852,-4.168665 0,-0.89509 7.77362,-6.931778 11.03322,-8.567879 6.0909,-3.057336 18.6189,-6.038273 38.1249,-9.071517 9.7127,-1.51037 22.2421,-1.378766 29.7927,0.312933 14.2857,3.200678 29.2268,10.971791 44.0933,22.933604 9.8686,7.940404 23.3643,20.489781 26.4135,24.561491 8.6134,11.50142 14.5484,28.38364 17.0389,48.46661 2.8889,23.29626 3.4975,54.91798 1.2901,67.03374 -0.9815,5.38739 -4.2971,16.98189 -4.8562,16.98189 -0.1646,0 -0.4618,-0.42363 -0.6605,-0.9414 z"
       style="fill:#800000;fill-opacity:1;stroke:#000000;stroke-width:0.595856;stroke-opacity:1" />
    <path
       id="path3176"
       d="m 292.45129,79.504079 c 1.31459,0.597064 2.71564,0.950603 4.09986,1.319718 0.42029,0.11208 0.80954,0.26647 1.24298,0.345276 0.45125,0.08205 0.9248,0.156464 1.38107,0.207163 0.30499,0.03389 0.59124,0.0056 0.89774,0.06905 0.21052,0.04356 0.41431,0.115091 0.62148,0.172638 0.2532,0.05754 0.50498,0.121714 0.75959,0.172638 0.37555,0.07511 0.76409,0.09999 1.13943,0.172633 0.56525,0.109405 1.05246,0.35048 1.58824,0.517911 1.12212,0.35066 2.98614,0.685305 4.07424,0.345276 0.84277,-0.263369 1.4738,-1.224386 2.00257,-1.864479 0.51266,-0.620588 1.26828,-0.982041 1.79544,-1.58826 0.46556,-0.535397 0.80449,-1.172493 1.24296,-1.726366 0.60817,-0.768221 1.37165,-1.361819 2.03713,-2.071643 0.5964,-0.636151 1.29212,-1.429631 1.69183,-2.20975 0.0695,-0.135694 0.0894,-0.251708 0.11647,-0.300045"
       style="fill:none;stroke:#000000;stroke-width:0.264583px;stroke-linecap:butt;stroke-linejoin:miter;stroke-opacity:1" />
    <path
       transform="scale(0.26458334)"
       id="path3178"
       d="m 932.93896,485.76944 c -4.17688,-0.98271 -6.02634,-2.02668 -10.67481,-6.02558 -2.85133,-2.4529 -3.66538,-3.62133 -3.04435,-4.36962 0.46624,-0.56179 8.36665,-3.51572 17.55648,-6.56428 40.38809,-13.39808 121.01342,-43.22458 138.71492,-51.31616 5.7421,-2.62479 6.7706,-3.39763 6.7706,-5.08769 0,-2.99479 -3.3154,-5.74395 -8.1869,-6.78871 -5.7619,-1.23571 -9.4038,-1.16887 -19.8638,0.36455 -17.1219,2.51004 -38.2369,8.20393 -84.12817,22.68612 -14.55616,4.59357 -31.24753,9.53525 -37.09194,10.98151 l -10.6262,2.62957 -4.53385,-2.43788 c -4.7791,-2.56974 -8.65173,-5.70622 -8.65173,-7.0071 0,-1.44957 3.70756,-3.12779 13.36696,-6.05051 13.11692,-3.96889 21.56031,-7.43889 28.45444,-11.69398 3.57994,-2.20956 8.75471,-4.42073 13.53054,-5.78157 16.06088,-4.57644 32.68042,-12.22055 46.51005,-21.39218 9.1156,-6.04531 16.3605,-11.91062 38.0948,-30.84066 9.7928,-8.52933 24.9468,-21.2415 33.6755,-28.24927 8.7287,-7.00778 16.9695,-14.13995 18.3128,-15.84928 2.8463,-3.62186 5.1538,-7.91024 5.1538,-9.57827 0,-0.91432 1.989,-0.57863 9.1104,1.53757 5.0107,1.48899 11.0665,2.95474 13.4573,3.25722 6.8438,0.86583 15.6117,2.7276 19.6729,4.1773 5.1232,1.8288 14.2452,2.52884 17.1394,1.31531 2.8683,-1.20262 26.4241,-25.86778 31.4741,-32.95625 l 2.4697,-3.4667 6.3506,5.03526 c 10.7772,8.54508 15.0097,16.88548 20.7716,40.93233 1.6224,6.77099 3.8825,15.88776 5.0225,20.25947 1.9544,7.49508 3.9256,24.40598 5.1209,43.93129 0.4393,7.17522 0.2995,8.37969 -1.3738,11.83625 -3.7299,7.7049 -13.6772,10.95722 -41.8462,13.68178 -23.9446,2.31597 -38.9991,6.90391 -64.6158,19.69198 -14.5185,7.24775 -17.7656,8.41798 -45.1136,16.25841 -27.2085,7.80045 -54.6367,14.72835 -79.088,19.97625 -24.72913,5.30754 -46.76323,10.90083 -59.01778,14.98148 -4.67549,1.55689 -8.77481,2.79328 -9.10961,2.74752 -0.33481,-0.0458 -2.0285,-0.41722 -3.76375,-0.82548 z"
       style="fill:#75a5ff;fill-opacity:1;stroke:#000000;stroke-width:0.828146;stroke-opacity:1" />
    <path
       transform="scale(0.26458334)"
       id="path3180"
       d="m 1152.6543,311.39869 c -8.0782,-2.17759 -14.3329,-3.54997 -21.6646,-4.75352 -3.9447,-0.64755 -11.0393,-2.36476 -15.7659,-3.81604 l -8.5937,-2.63869 -2.7266,-5.25894 c -3.4155,-6.58754 -12.2779,-15.20799 -24.472,-23.8039 l -8.9048,-6.27723 2.3479,-1.22128 c 13.5609,-7.0537 13.3881,-36.23884 -0.2537,-42.84273 -6.6701,-3.22892 -13.0674,-0.30563 -17.2587,7.88637 -2.307,4.5091 -2.4996,5.54877 -2.4996,13.49296 v 8.60743 l -2.6665,-3.16392 c -1.4666,-1.74015 -3.8889,-5.56678 -5.3829,-8.50362 -2.4165,-4.75012 -2.7165,-6.0914 -2.7165,-12.14764 0,-6.58514 0.1395,-7.07517 4.2612,-14.97343 6.446,-12.35214 8.1322,-19.63327 6.1485,-26.55013 -0.7083,-2.46967 -0.6182,-2.68601 1.1197,-2.68601 3.3545,0 7.4863,-3.4529 7.7819,-6.50318 0.5598,-5.77803 -4.3952,-8.87277 -13.1879,-8.23676 -4.0738,0.29467 -4.8812,0.13339 -4.8812,-0.97504 0,-2.37596 2.4438,-10.78349 4.037,-13.8891 l 1.5546,-3.03007 0.6273,2.85638 c 0.879,4.00174 3.0173,8.24597 4.1546,8.24597 0.5263,0 1.3949,-1.9565 1.9301,-4.34777 0.5352,-2.39127 1.6444,-5.3711 2.4649,-6.62183 l 1.4919,-2.27407 1.0516,5.58665 c 1.4777,7.84971 1.7022,8.48516 2.9985,8.48516 1.3304,0 4.7191,-5.59144 6.1795,-10.19615 0.6264,-1.97509 1.7158,-3.42858 2.91,-3.88261 1.0498,-0.39914 2.1532,-1.12136 2.4521,-1.60494 1.1382,-1.84161 2.0812,-0.68294 4.3322,5.3229 1.2785,3.41117 2.8086,6.20616 3.4002,6.2111 0.5916,0.005 1.7531,-1.50397 2.5809,-3.35311 0.8279,-1.84915 1.8345,-3.37775 2.2369,-3.3969 0.4025,-0.0191 1.8497,-2.11681 3.2162,-4.66146 1.3664,-2.54464 2.8571,-4.73389 3.3125,-4.86497 0.4555,-0.13109 1.3872,0.964 2.0704,2.43354 0.9894,2.12809 1.7407,2.67189 3.6914,2.67189 1.9226,0 2.9908,-0.74576 4.9689,-3.46901 1.3858,-1.90797 2.9066,-3.4918 3.3795,-3.51963 0.4729,-0.0278 2.2923,1.66318 4.0432,3.75779 l 3.1835,3.8084 4.2938,-0.53648 c 4.1171,-0.5144 4.3375,-0.44112 5.3558,1.7816 l 1.0621,2.31807 2.402,-2.86723 c 1.3211,-1.57698 2.402,-3.16081 2.402,-3.51963 0,-0.35881 0.4814,-0.65239 1.0697,-0.65239 0.5884,0 2.7157,-1.67699 4.7273,-3.72666 2.0116,-2.04966 4.0869,-3.72666 4.6119,-3.72666 1.1334,0 1.996,6.32092 2.0061,14.6996 l 0.01,6.00406 h 5.2704 5.2704 l 1.3548,3.54731 c 0.7631,1.99833 1.3547,5.95402 1.3547,9.05886 0,3.03134 0.9078,10.84487 2.0174,17.36338 2.9931,17.58401 3.4633,24.7934 1.7842,27.35601 -1.9933,3.04216 -2.9173,22.94246 -1.1475,24.71232 0.6802,0.68013 1.7101,2.71697 2.2888,4.52631 2.5084,7.84235 11.8663,16.37498 35.0771,31.98355 1.1688,0.78599 -1.9811,5.43466 -6.9311,10.22903 -2.3513,2.27741 -5.774,6.14457 -7.6059,8.5937 -4.2392,5.6675 -15.3661,16.60986 -17.8766,17.5801 -2.6417,1.02095 -6.3702,0.82171 -11.7471,-0.62771 z m -73.6506,-98.03804 c 2.4719,-1.32292 2.0472,-5.20299 -0.9421,-8.60766 -2.523,-2.87347 -2.5392,-2.95241 -1.9635,-9.5525 0.4159,-4.76741 0.3129,-6.65509 -0.3631,-6.65509 -1.3412,0 -14.3059,6.48522 -15.9634,7.98529 -1.2749,1.15373 -1.2809,1.55187 -0.078,5.12135 2.3409,6.94383 4.7341,9.03637 13.044,11.40526 4.4839,1.27821 4.4473,1.27644 6.2656,0.30335 z m 24.1039,-37.07513 c 7.8494,-4.50882 2.862,-13.41425 -7.5109,-13.41137 -8.1324,0.002 -13.6237,4.40628 -11.7241,9.40266 2.0975,5.51685 12.7461,7.73608 19.235,4.00871 z"
       style="fill:#ececec;fill-opacity:1;stroke:#000000;stroke-width:0.828146;stroke-opacity:1" />
    <path
       transform="scale(0.26458334)"
       id="path3186"
       d="m 1064.1175,262.37093 c -3.1107,-1.43791 -5.935,-4.64902 -7.9157,-8.99988 -2.4608,-5.40537 -2.4722,-16.93443 -0.022,-22.25802 3.1332,-6.8077 8.6863,-10.82317 13.3562,-9.65792 7.7895,1.94365 13.2371,14.28451 11.2763,25.54473 -2.0098,11.541 -9.6876,18.6101 -16.6947,15.37109 z"
       style="fill:#f2f2f2;fill-opacity:1;stroke:#ffffff;stroke-width:0.741934;stroke-opacity:1" />
  </g>
</svg>
