<?xml version="1.0" encoding="UTF-8" standalone="no"?>
<svg
   xmlns:dc="http://purl.org/dc/elements/1.1/"
   xmlns:cc="http://creativecommons.org/ns#"
   xmlns:rdf="http://www.w3.org/1999/02/22-rdf-syntax-ns#"
   xmlns:svg="http://www.w3.org/2000/svg"
   xmlns="http://www.w3.org/2000/svg"
   xmlns:sodipodi="http://sodipodi.sourceforge.net/DTD/sodipodi-0.dtd"
   xmlns:inkscape="http://www.inkscape.org/namespaces/inkscape"
   width="793.70081"
   height="1122.5197"
   viewBox="0 0 210 297"
   version="1.1"
   id="svg8"
   inkscape:version="1.0.1 (3bc2e813f5, 2020-09-07)"
   sodipodi:docname="emoji's.svg">
  <defs
     id="defs2" />
  <sodipodi:namedview
     id="base"
     pagecolor="#ffffff"
     bordercolor="#666666"
     borderopacity="1.0"
     inkscape:pageopacity="0.0"
     inkscape:pageshadow="2"
     inkscape:zoom="0.49976852"
     inkscape:cx="1578.0003"
     inkscape:cy="561.25984"
     inkscape:document-units="px"
     inkscape:current-layer="layer1"
     inkscape:document-rotation="0"
     showgrid="false"
     inkscape:window-width="1366"
     inkscape:window-height="715"
     inkscape:window-x="-8"
     inkscape:window-y="22"
     inkscape:window-maximized="1"
     showborder="false"
     units="px" />
  <metadata
     id="metadata5">
    <rdf:RDF>
      <cc:Work
         rdf:about="">
        <dc:format>image/svg+xml</dc:format>
        <dc:type
           rdf:resource="http://purl.org/dc/dcmitype/StillImage" />
        <dc:title></dc:title>
      </cc:Work>
    </rdf:RDF>
  </metadata>
  <g
     inkscape:label="Layer 1"
     inkscape:groupmode="layer"
     id="layer1">
    <ellipse
       style="fill:#cccccc;stroke:#cccccc;stroke-width:3.0316"
       id="path10"
       cx="106.14705"
       cy="139.23531"
       rx="72.601227"
       ry="69.689468" />
    <ellipse
       style="fill:#f9f9f9;stroke:#cccccc;stroke-width:2.64583"
       id="path12"
       cx="76.5"
       cy="116.20588"
       rx="20.382353"
       ry="19.85294" />
    <ellipse
       style="fill:#f9f9f9;stroke:#cccccc;stroke-width:2.64583"
       id="ellipse14"
       cx="129.9706"
       cy="108.79412"
       rx="20.382353"
       ry="19.85294" />
    <circle
       style="fill:#000000;stroke:#000000;stroke-width:2.64583"
       id="path16"
       cx="78.352943"
       cy="122.82352"
       r="3.1764705" />
    <circle
       style="fill:#000000;stroke:#000000;stroke-width:2.64583"
       id="circle18"
       cx="128.11765"
       cy="105.88235"
       r="3.1764705" />
    <path
       style="fill:#000000;stroke:#000000;stroke-width:2.64583"
       id="path20"
       d="m 92.940493,77.104832 c 2.20004,-2.655361 3.870299,-5.702692 5.445871,-8.75587 0.957514,-1.838819 1.667686,-3.772773 1.934076,-5.829818 0.093,-0.939618 0.0775,-1.88481 0.0677,-2.827528 0,0 -6.944662,3.546546 -6.944662,3.546546 v 0 c 0.0072,0.904158 0.0177,1.811073 -0.08458,2.711117 -0.271132,1.921351 -0.921973,3.742306 -1.790282,5.476729 -1.568416,3.09476 -3.243339,6.260018 -5.866863,8.600596 0,0 7.238714,-2.921772 7.238714,-2.921772 z" />
    <path
       style="fill:#000000;stroke:#000000;stroke-width:2.64583"
       id="path22"
       d="m 98.829907,80.682363 c 2.402783,-1.442174 4.857123,-2.801731 7.208343,-4.326524 0.27317,-0.177155 0.41443,-0.502275 0.62306,-0.752235 0.9093,-1.089416 1.70967,-2.165548 2.38104,-3.417816 0.69918,-1.558189 0.76646,-3.255118 0.83279,-4.932521 -0.0226,-1.386342 0.0243,-2.742337 0.34086,-4.095363 0.1603,-0.998578 0.42833,-1.966786 0.69738,-2.939585 0,0 -6.98924,3.334152 -6.98924,3.334152 v 0 c -0.25483,0.986899 -0.47398,1.980065 -0.68129,2.977944 -0.26368,1.391973 -0.28722,2.790195 -0.26905,4.204256 -0.0651,1.579578 -0.1998,3.168112 -0.95735,4.590962 -0.49935,0.855208 -1.03186,1.645335 -1.67828,2.399755 -1.997134,2.330802 -5.936412,4.483346 4.63265,-1.955178 0,0 -6.140913,4.912153 -6.140913,4.912153 z" />
    <path
       style="fill:#000000;stroke:#000000;stroke-width:2.64583"
       id="path24"
       d="m 119.20846,78.133598 c 1.51473,-2.502596 2.38407,-5.293088 3.26881,-8.060428 0.61066,-1.760223 1.02501,-3.576479 1.44357,-5.388705 0,0 -6.74336,3.252427 -6.74336,3.252427 v 0 c -0.37797,1.777691 -0.78198,3.550127 -1.37624,5.271395 -0.97327,2.800858 -1.9419,5.677714 -3.80621,8.03385 0,0 7.21343,-3.108539 7.21343,-3.108539 z" />
    <path
       style="fill:#000000;stroke:#000000;stroke-width:2.64583"
       id="path26"
       d="m 67.206949,84.312844 c 2.799493,-2.280688 7.075826,-3.437851 9.694106,-6.234457 0.905367,-0.967031 0.892217,-1.053293 1.662806,-2.200526 1.026768,-1.751282 2.012831,-3.520863 2.870583,-5.360773 0,0 -6.881675,3.13219 -6.881675,3.13219 v 0 c -0.860321,1.798659 -1.796862,3.563207 -2.905873,5.223502 -0.837383,1.076447 -0.858695,1.19706 -1.821379,2.094915 -2.180526,2.033694 -8.156514,5.000795 3.492159,-1.542854 0,0 -6.110727,4.888003 -6.110727,4.888003 z" />
    <path
       style="fill:#000000;stroke:#000000;stroke-width:2.64583"
       id="path28"
       d="m 81.936129,69.369783 c 0.06984,-2.037548 0.214878,-4.07135 0.317973,-6.107311 0.04521,-1.290825 0.07264,-2.582127 0.0899,-3.873592 0,0 -6.918899,3.521138 -6.918899,3.521138 v 0 c 0.0048,1.271857 0.009,2.544072 -0.03363,3.815429 -0.05552,2.033328 -0.104118,4.084339 -0.495072,6.086023 0,0 7.039724,-3.441687 7.039724,-3.441687 z" />
    <path
       style="fill:#000000;stroke:#000000;stroke-width:2.64583"
       id="path30"
       d="m 132.53821,80.065276 c 1.25919,-2.706558 2.35838,-5.465178 3.22646,-8.320344 0.58849,-2.302132 1.07225,-4.631415 1.41131,-6.983479 0.17331,-1.250193 0.11118,-2.539095 0.6062,-3.718658 0.059,-0.150227 0.11811,-0.300458 0.17717,-0.450686 0,0 -7.07554,3.299018 -7.07554,3.299018 v 0 c -0.0533,0.157951 -0.10651,0.3159 -0.15976,0.473851 -0.3047,1.249518 -0.32456,2.520532 -0.45007,3.796368 -0.29241,2.286585 -0.73195,4.556959 -1.29452,6.791958 -0.87081,2.857425 -1.97214,5.688959 -3.59029,8.212491 0,0 7.14904,-3.100519 7.14904,-3.100519 z" />
    <path
       style="fill:#000000;stroke:#000000;stroke-width:2.64583"
       id="path40"
       d="m 58.855522,166.5394 c 0.730322,-1.06663 1.539309,-2.16066 2.560746,-2.96812 2.903019,-1.28796 -2.155245,0.9374 -6.029242,3.53964 -0.143849,0.0966 0.275833,0.21804 0.374732,0.36033 0.201834,0.2904 0.360084,0.60942 0.51889,0.92541 0.248486,0.49444 0.885732,1.96742 1.102309,2.46168 0.562875,1.21699 0.898258,3.06358 2.290186,3.6785 2.695324,1.19074 8.144171,-3.799 8.751385,-4.13738 0.365112,-0.35005 0.751017,-0.67962 1.095335,-1.05014 1.183802,-1.2739 2.069055,-2.77126 3.198561,-4.08514 0.324673,-0.37767 1.485572,-1.29895 1.043702,-1.06917 -1.840952,0.95732 -3.527869,2.1855 -5.291804,3.27825 0.412644,-0.0323 0.826341,-0.14062 1.237935,-0.0969 2.089166,0.22186 4.013002,1.75643 5.741776,2.82555 1.553884,1.11615 3.279,1.12797 5.104609,1.16717 3.084007,0.43937 5.328681,2.77364 7.401517,4.91328 0.274455,0.28727 1.311286,1.42073 1.70184,1.65335 1.534197,0.91378 3.185774,0.34561 4.674211,-0.29023 2.511772,-1.44603 5.023545,-2.89206 7.53531,-4.33809 0.30546,-0.18603 1.22646,-0.73632 0.91638,-0.5581 -1.92186,1.10457 -3.859255,2.18348 -5.751945,3.33731 -0.26778,0.16325 0.569026,-0.26912 0.869018,-0.36055 0.806972,-0.24593 0.990932,-0.16688 1.836282,-0.13709 1.875175,0.39641 3.255295,1.79053 4.959345,2.57231 0.30419,0.0367 0.60668,0.12784 0.91257,0.1102 1.57436,-0.0908 3.81415,-1.45597 5.29932,-2.09852 1.38141,-0.50849 2.8949,-0.97667 4.38193,-0.66259 0.61953,0.13085 1.30674,0.46691 1.87847,0.71625 0.47209,0.0148 0.95605,0.15076 1.41628,0.0446 0.60316,-0.13919 1.16492,-0.43989 1.69341,-0.76217 2.68401,-1.63676 5.36359,-3.2895 7.92938,-5.10597 0.59197,-0.41909 1.01117,-1.04029 1.50398,-1.57245 0.8698,-0.93928 1.71147,-1.90426 2.57569,-2.84866 1.95291,-2.57491 7.44272,-6.46457 -3.41227,0.86381 -0.15672,0.1058 0.40011,-0.0321 0.56379,0.0626 0.27019,0.15626 0.44798,0.43474 0.67197,0.65211 1.10544,1.17887 1.37014,3.71895 2.91169,4.40872 0.3202,0.14328 0.69082,0.12241 1.03624,0.18361 3.90512,-1.39593 2.0155,-0.62343 8.88729,-5.07089 0.39737,-0.25719 0.68067,-0.65819 1.03157,-0.97587 0.33242,-0.30095 1.40866,-1.09946 1.01788,-0.87955 -6.33118,3.56289 -6.9922,3.44782 -3.73894,3.02824 0.58243,0.17525 1.19584,0.26915 1.74729,0.52575 2.03603,0.94743 3.50937,2.6338 5.02732,4.21648 1.57113,1.63813 1.12547,1.18487 2.71688,2.63682 0.90883,0.5442 1.54846,1.08542 2.64611,1.16547 0.90892,0.0663 1.83402,-0.25634 2.6033,-0.70536 7.45148,-4.3493 5.5402,-2.4658 8.29212,-5.39951 0,0 -7.04971,2.91767 -7.04971,2.91767 v 0 c -2.40178,2.217 -0.82759,0.64381 4.66833,-2.2721 0.38092,-0.2021 -0.705,0.50327 -1.09179,0.69391 -1.49214,0.73544 -2.32949,0.41438 -3.73473,-0.34039 -1.52192,-1.2711 -1.30821,-1.03579 -2.78124,-2.51778 -2.09045,-2.10314 -4.08075,-4.36981 -6.97139,-5.37746 -4.44637,-0.1141 -1.61272,-0.30693 -9.35176,4.28095 -0.38166,0.22625 -0.66168,0.59129 -0.99569,0.88333 -0.35056,0.30652 -1.47968,1.10985 -1.05798,0.91232 1.84103,-0.86236 3.54585,-1.99148 5.35242,-2.92389 0.35598,-0.18373 -0.66305,0.44981 -0.99457,0.67471 -0.25497,0.065 -0.50323,0.2227 -0.76493,0.19514 -0.9404,-0.099 -1.31782,-1.48016 -1.65452,-2.13624 -0.4978,-0.96997 -0.63631,-1.15352 -1.21253,-2.08937 -0.10037,-0.12113 -1.32713,-1.77834 -1.74218,-1.59663 -5.54403,2.4271 -6.59626,3.30841 -9.49845,6.87538 -0.56662,0.6416 -1.9346,2.20173 -2.4846,2.77444 -0.49918,0.51979 -2.23613,1.70035 -1.5387,1.51877 1.69371,-0.44095 3.0879,-1.65891 4.69941,-2.34166 0.5155,-0.2184 -0.88318,0.70608 -1.3917,0.94029 -0.35434,0.16319 -0.76512,0.15283 -1.14767,0.22925 -0.31511,-0.14733 -1.67085,-0.79368 -1.99302,-0.89311 -1.54122,-0.47569 -3.1724,-0.11565 -4.66236,0.35564 -1.23213,0.48703 -0.98076,0.36152 -2.16515,0.93274 -0.94986,0.4581 -1.85859,1.04319 -2.87942,1.33732 -0.23852,0.0687 -0.48858,0.088 -0.73288,0.13205 -1.86262,-0.61469 -3.22586,-2.14339 -5.12421,-2.70523 -0.35021,-0.0651 -0.69521,-0.17167 -1.05063,-0.19528 -3.22091,-0.21393 -8.104576,3.85824 -9.292716,4.54818 -1.531263,0.8892 -8.344358,5.2515 4.626986,-2.60958 -1.072715,0.61047 -2.838469,1.56499 -4.132096,0.98863 -0.367165,-0.16359 -1.537812,-1.32588 -1.762329,-1.53874 -2.23687,-2.17452 -4.504928,-4.60729 -7.601884,-5.4593 -1.700937,-0.10534 -3.393202,0.12613 -4.90519,-0.84856 -2.371518,-1.32727 -4.67292,-3.05628 -7.459329,-3.29484 -2.532941,1.45372 -5.138015,2.78843 -7.59882,4.36118 -0.417655,0.26693 -0.666427,0.73465 -0.977799,1.12031 -1.396042,1.72914 -2.585802,3.66635 -4.485397,4.91529 1.851086,-0.9845 3.734512,-1.91046 5.553258,-2.95349 0.219945,-0.12614 -0.484262,0.21887 -0.736272,0.19099 -0.24347,-0.0269 -0.465317,-0.18249 -0.649224,-0.3443 -0.831144,-0.73128 -1.059601,-1.9478 -1.539669,-2.88503 -0.517744,-1.19879 -0.943356,-2.49636 -1.573749,-3.64184 -0.160616,-0.29184 -0.24597,-0.93554 -0.560946,-0.82709 -5.400408,1.8594 -5.343924,1.86473 -7.622405,3.83186 -0.935884,0.97817 -1.756137,2.06174 -2.578555,3.13522 0,0 7.213438,-3.10854 7.213438,-3.10854 z" />
    <ellipse
       style="fill:#cccccc;stroke:#cccccc;stroke-width:3.0316"
       id="ellipse42"
       cx="303.58545"
       cy="105.98252"
       rx="72.601227"
       ry="69.689468" />
    <ellipse
       style="fill:#f9f9f9;stroke:#cccccc;stroke-width:2.64583"
       id="ellipse44"
       cx="273.93839"
       cy="82.953094"
       rx="20.382353"
       ry="19.85294" />
    <ellipse
       style="fill:#f9f9f9;stroke:#cccccc;stroke-width:2.64583"
       id="ellipse46"
       cx="327.409"
       cy="75.541336"
       rx="20.382353"
       ry="19.85294" />
    <ellipse
       style="fill:#000000;stroke:#000000;stroke-width:4.31291"
       id="circle48"
       cx="282.92145"
       cy="91.02729"
       rx="5.316432"
       ry="5.0429788" />
    <ellipse
       style="fill:#000000;stroke:#000000;stroke-width:4.31291"
       id="circle50"
       cx="335.05237"
       cy="84.335579"
       rx="5.316432"
       ry="5.0429788" />
    <path
       style="fill:#000000;stroke:#000000;stroke-width:2.64583"
       id="path52"
       d="m 290.37889,43.85205 c 2.20004,-2.655361 3.8703,-5.702692 5.44587,-8.75587 0.95751,-1.838819 1.66768,-3.772773 1.93407,-5.829818 0.093,-0.939618 0.0775,-1.88481 0.0677,-2.827528 0,0 -6.94466,3.546546 -6.94466,3.546546 v 0 c 0.007,0.904158 0.0177,1.811073 -0.0846,2.711117 -0.27113,1.921351 -0.92197,3.742306 -1.79028,5.476729 -1.56842,3.09476 -3.24334,6.260018 -5.86686,8.600596 0,0 7.23871,-2.921772 7.23871,-2.921772 z" />
    <path
       style="fill:#000000;stroke:#000000;stroke-width:2.64583"
       id="path54"
       d="m 296.2683,47.429581 c 2.40278,-1.442174 4.85712,-2.801731 7.20834,-4.326524 0.27317,-0.177155 0.41443,-0.502275 0.62306,-0.752235 0.9093,-1.089416 1.70967,-2.165548 2.38104,-3.417816 0.69918,-1.558189 0.76646,-3.255118 0.83279,-4.932521 -0.0226,-1.386342 0.0243,-2.742337 0.34086,-4.095363 0.1603,-0.998578 0.42833,-1.966786 0.69738,-2.939585 0,0 -6.98924,3.334152 -6.98924,3.334152 v 0 c -0.25483,0.986899 -0.47398,1.980065 -0.68129,2.977944 -0.26368,1.391973 -0.28722,2.790195 -0.26905,4.204256 -0.0651,1.579578 -0.1998,3.168112 -0.95735,4.590962 -0.49935,0.855208 -1.03186,1.645335 -1.67828,2.399755 -1.99713,2.330802 -5.93641,4.483346 4.63265,-1.955178 0,0 -6.14091,4.912153 -6.14091,4.912153 z" />
    <path
       style="fill:#000000;stroke:#000000;stroke-width:2.64583"
       id="path56"
       d="m 316.64685,44.880816 c 1.51473,-2.502596 2.38407,-5.293088 3.26881,-8.060428 0.61066,-1.760223 1.02501,-3.576479 1.44357,-5.388705 0,0 -6.74336,3.252427 -6.74336,3.252427 v 0 c -0.37797,1.777691 -0.78198,3.550127 -1.37624,5.271395 -0.97327,2.800858 -1.9419,5.677714 -3.80621,8.03385 0,0 7.21343,-3.108539 7.21343,-3.108539 z" />
    <path
       style="fill:#000000;stroke:#000000;stroke-width:2.64583"
       id="path58"
       d="m 264.64534,51.060062 c 2.7995,-2.280688 7.07583,-3.437851 9.69411,-6.234457 0.90537,-0.967031 0.89222,-1.053293 1.66281,-2.200526 1.02676,-1.751282 2.01283,-3.520863 2.87058,-5.360773 0,0 -6.88168,3.13219 -6.88168,3.13219 v 0 c -0.86032,1.798659 -1.79686,3.563207 -2.90587,5.223502 -0.83738,1.076447 -0.85869,1.19706 -1.82138,2.094915 -2.18052,2.033694 -8.15651,5.000795 3.49216,-1.542854 0,0 -6.11073,4.888003 -6.11073,4.888003 z" />
    <path
       style="fill:#000000;stroke:#000000;stroke-width:2.64583"
       id="path60"
       d="m 279.37452,36.117001 c 0.0698,-2.037548 0.21488,-4.07135 0.31798,-6.107311 0.0452,-1.290825 0.0726,-2.582127 0.0899,-3.873592 0,0 -6.9189,3.521138 -6.9189,3.521138 v 0 c 0.005,1.271857 0.009,2.544072 -0.0336,3.815429 -0.0555,2.033328 -0.10412,4.084339 -0.49507,6.086023 0,0 7.03972,-3.441687 7.03972,-3.441687 z" />
    <path
       style="fill:#000000;stroke:#000000;stroke-width:2.64583"
       id="path62"
       d="m 329.9766,46.812494 c 1.25919,-2.706558 2.35838,-5.465178 3.22646,-8.320344 0.58849,-2.302132 1.07225,-4.631415 1.41131,-6.983479 0.17331,-1.250193 0.11118,-2.539095 0.6062,-3.718658 0.059,-0.150227 0.11811,-0.300458 0.17717,-0.450686 0,0 -7.07554,3.299018 -7.07554,3.299018 v 0 c -0.0533,0.157951 -0.10651,0.3159 -0.15976,0.473851 -0.3047,1.249518 -0.32456,2.520532 -0.45007,3.796368 -0.29241,2.286585 -0.73195,4.556959 -1.29452,6.791958 -0.87081,2.857425 -1.97214,5.688959 -3.59029,8.212491 0,0 7.14904,-3.100519 7.14904,-3.100519 z" />
    <path
       style="fill:#000000;stroke:#000000;stroke-width:2.64583"
       id="path94"
       d="m 304.2309,100.4066 c 1.29366,1.03632 2.51426,2.1607 3.82453,3.17881 1.89243,1.54826 3.74229,3.14778 5.54561,4.79983 1.9761,1.85423 4.11726,3.59222 5.86756,5.67092 0.20061,0.39542 1.07424,1.2522 0.56396,1.76859 -0.20569,0.20816 -1.02552,0.56313 -0.77708,0.4085 4.51287,-2.80876 6.27184,-3.50416 3.16222,-2.14737 -2.6275,1.37887 -5.4669,2.15903 -8.28799,3.01169 -4.23373,1.14665 -7.87861,3.63883 -11.54409,5.99021 -1.35284,1.00525 -2.17982,2.53138 -2.83226,4.05368 -0.33089,0.71544 -0.61087,1.43265 -0.99729,2.1199 0,0 6.13695,-2.76921 6.13695,-2.76921 v 0 c 0.33007,-0.70859 0.62871,-1.4296 0.96163,-2.13691 0.70363,-1.44332 1.5652,-2.81742 2.9532,-3.6922 2.3699,-1.5467 0.80071,-0.49957 -4.08609,2.24862 -0.30059,0.16904 0.58788,-0.36159 0.89286,-0.52252 1.05751,-0.55804 2.18919,-0.94923 3.33444,-1.28257 2.81339,-0.90659 5.72349,-1.52856 8.33654,-2.9794 3.43877,-1.30412 2.87769,-1.00854 8.13965,-4.4226 0.31093,-0.20174 0.52019,-0.55795 0.64164,-0.90814 0.27598,-0.79568 -0.51031,-1.61003 -0.88117,-2.19169 -1.85386,-2.0435 -4.10779,-3.70104 -6.09484,-5.61089 -1.77588,-1.6786 -3.45987,-3.46264 -5.3753,-4.98423 -1.29966,-0.96071 -2.49756,-2.051158 -3.65834,-3.173397 0,0 -5.82634,3.570377 -5.82634,3.570377 z" />
    <path
       style="fill:#000000;stroke:#000000;stroke-width:2.64583"
       id="path98"
       d="m 244.30214,87.350476 c -1.43269,0.05441 -2.86716,0.04259 -4.30066,0.04155 -1.45728,-0.0024 -2.91456,-0.0044 -4.37184,-0.0056 -3.3279,-0.06488 -4.60259,1.524738 -8.06769,3.844695 -0.16652,0.11149 -0.3377,1.29032 -0.35338,1.377156 -0.0671,2.838789 0.96499,5.445799 2.30045,7.892703 1.93324,2.94583 4.23998,5.62983 6.56243,8.2733 1.35938,1.83659 3.01021,3.40534 4.5735,5.05636 1.38576,1.60982 3.00039,2.99787 4.62451,4.35853 0.9689,0.76577 1.96808,1.49454 2.98046,2.20247 0,0 5.6914,-3.62387 5.6914,-3.62387 v 0 c -1.0037,-0.71106 -2.03269,-1.38447 -3.00684,-2.13494 -1.66062,-1.28023 -3.25281,-2.66309 -4.64041,-4.23988 -1.55169,-1.66353 -3.16855,-3.26391 -4.64372,-4.9977 -2.35061,-2.54286 -4.70905,-5.14355 -6.49665,-8.121624 -1.17942,-2.364099 -2.32455,-4.848568 -1.86682,-7.561727 0.0809,-0.211709 0.13107,-0.437841 0.24259,-0.635124 0.0839,-0.148445 0.48616,-0.465569 0.33502,-0.386612 -11.19458,5.847921 -5.9859,2.619123 -3.68635,2.657009 1.46237,-0.0011 2.92474,-0.0033 4.38711,-0.0056 1.39534,-0.0011 2.79185,-0.01453 4.18629,0.04155 0,0 5.5506,-4.03275 5.5506,-4.03275 z" />
    <ellipse
       style="fill:#cccccc;stroke:#cccccc;stroke-width:3.0316"
       id="ellipse100"
       cx="505.18048"
       cy="107.36806"
       rx="72.601227"
       ry="69.689468" />
    <ellipse
       style="fill:#f9f9f9;stroke:#cccccc;stroke-width:2.64583"
       id="ellipse102"
       cx="475.53336"
       cy="84.338631"
       rx="20.382353"
       ry="19.85294" />
    <ellipse
       style="fill:#f9f9f9;stroke:#cccccc;stroke-width:2.64583"
       id="ellipse104"
       cx="529.00403"
       cy="76.926872"
       rx="20.382353"
       ry="19.85294" />
    <circle
       style="fill:#000000;stroke:#000000;stroke-width:4.47902"
       id="circle106"
       cx="486.73865"
       cy="87.838829"
       r="5.3773227" />
    <circle
       style="fill:#000000;stroke:#000000;stroke-width:4.68271"
       id="circle108"
       cx="538.9281"
       cy="82.3283"
       r="5.6218619" />
    <path
       style="fill:#000000;stroke:#000000;stroke-width:2.64583"
       id="path110"
       d="m 491.97388,45.237583 c 2.20004,-2.655361 3.8703,-5.702692 5.44587,-8.75587 0.95751,-1.838819 1.66768,-3.772773 1.93407,-5.829818 0.093,-0.939618 0.0775,-1.88481 0.0677,-2.827528 0,0 -6.94466,3.546546 -6.94466,3.546546 v 0 c 0.007,0.904158 0.0177,1.811073 -0.0846,2.711117 -0.27113,1.921351 -0.92197,3.742306 -1.79028,5.476729 -1.56842,3.09476 -3.24334,6.260018 -5.86686,8.600596 0,0 7.23871,-2.921772 7.23871,-2.921772 z" />
    <path
       style="fill:#000000;stroke:#000000;stroke-width:2.64583"
       id="path112"
       d="m 497.86329,48.815114 c 2.40278,-1.442174 4.85712,-2.801731 7.20834,-4.326524 0.27317,-0.177155 0.41443,-0.502275 0.62306,-0.752235 0.9093,-1.089416 1.70967,-2.165548 2.38104,-3.417816 0.69918,-1.558189 0.76646,-3.255118 0.83279,-4.932521 -0.0226,-1.386342 0.0243,-2.742337 0.34086,-4.095363 0.1603,-0.998578 0.42833,-1.966786 0.69738,-2.939585 0,0 -6.98924,3.334152 -6.98924,3.334152 v 0 c -0.25483,0.986899 -0.47398,1.980065 -0.68129,2.977944 -0.26368,1.391973 -0.28722,2.790195 -0.26905,4.204256 -0.0651,1.579578 -0.1998,3.168112 -0.95735,4.590962 -0.49935,0.855208 -1.03186,1.645335 -1.67828,2.399755 -1.99713,2.330802 -5.93641,4.483346 4.63265,-1.955178 0,0 -6.14091,4.912153 -6.14091,4.912153 z" />
    <path
       style="fill:#000000;stroke:#000000;stroke-width:2.64583"
       id="path114"
       d="m 518.24184,46.266349 c 1.51473,-2.502596 2.38407,-5.293088 3.26881,-8.060428 0.61066,-1.760223 1.02501,-3.576479 1.44357,-5.388705 0,0 -6.74336,3.252427 -6.74336,3.252427 v 0 c -0.37797,1.777691 -0.78198,3.550127 -1.37624,5.271395 -0.97327,2.800858 -1.9419,5.677714 -3.80621,8.03385 0,0 7.21343,-3.108539 7.21343,-3.108539 z" />
    <path
       style="fill:#000000;stroke:#000000;stroke-width:2.64583"
       id="path116"
       d="m 466.24033,52.445595 c 2.7995,-2.280688 7.07583,-3.437851 9.69411,-6.234457 0.90537,-0.967031 0.89222,-1.053293 1.66281,-2.200526 1.02676,-1.751282 2.01283,-3.520863 2.87058,-5.360773 0,0 -6.88168,3.13219 -6.88168,3.13219 v 0 c -0.86032,1.798659 -1.79686,3.563207 -2.90587,5.223502 -0.83738,1.076447 -0.85869,1.19706 -1.82138,2.094915 -2.18052,2.033694 -8.15651,5.000795 3.49216,-1.542854 0,0 -6.11073,4.888003 -6.11073,4.888003 z" />
    <path
       style="fill:#000000;stroke:#000000;stroke-width:2.64583"
       id="path118"
       d="m 480.96951,37.502534 c 0.0698,-2.037548 0.21488,-4.07135 0.31798,-6.107311 0.0452,-1.290825 0.0726,-2.582127 0.0899,-3.873592 0,0 -6.9189,3.521138 -6.9189,3.521138 v 0 c 0.005,1.271857 0.009,2.544072 -0.0336,3.815429 -0.0555,2.033328 -0.10412,4.084339 -0.49507,6.086023 0,0 7.03972,-3.441687 7.03972,-3.441687 z" />
    <path
       style="fill:#000000;stroke:#000000;stroke-width:2.64583"
       id="path120"
       d="m 531.57159,48.198027 c 1.25919,-2.706558 2.35838,-5.465178 3.22646,-8.320344 0.58849,-2.302132 1.07225,-4.631415 1.41131,-6.983479 0.17331,-1.250193 0.11118,-2.539095 0.6062,-3.718658 0.059,-0.150227 0.11811,-0.300458 0.17717,-0.450686 0,0 -7.07554,3.299018 -7.07554,3.299018 v 0 c -0.0533,0.157951 -0.10651,0.3159 -0.15976,0.473851 -0.3047,1.249518 -0.32456,2.520532 -0.45007,3.796368 -0.29241,2.286585 -0.73195,4.556959 -1.29452,6.791958 -0.87081,2.857425 -1.97214,5.688959 -3.59029,8.212491 0,0 7.14904,-3.100519 7.14904,-3.100519 z" />
    <path
       style="fill:#000000;stroke:#000000;stroke-width:2.64583"
       id="path122"
       d="m 505.82589,101.79213 c 1.29366,1.03632 2.51426,2.1607 3.82453,3.17881 1.89243,1.54826 3.74229,3.14778 5.54561,4.79983 1.9761,1.85423 4.11726,3.59222 5.86756,5.67092 0.20061,0.39542 1.07424,1.2522 0.56396,1.76859 -0.20569,0.20816 -1.02552,0.56313 -0.77708,0.4085 4.51287,-2.80876 6.27184,-3.50416 3.16222,-2.14737 -2.6275,1.37887 -5.4669,2.15903 -8.28799,3.01169 -4.23373,1.14665 -7.87861,3.63883 -11.54409,5.99021 -1.35284,1.00525 -2.17982,2.53138 -2.83226,4.05368 -0.33089,0.71544 -0.61087,1.43265 -0.99729,2.1199 0,0 6.13695,-2.76921 6.13695,-2.76921 v 0 c 0.33007,-0.70859 0.62871,-1.4296 0.96163,-2.13691 0.70363,-1.44332 1.5652,-2.81742 2.9532,-3.6922 2.3699,-1.5467 0.80071,-0.49957 -4.08609,2.24862 -0.30059,0.16904 0.58788,-0.36159 0.89286,-0.52252 1.05751,-0.55804 2.18919,-0.94923 3.33444,-1.28257 2.81339,-0.90659 5.72349,-1.52856 8.33654,-2.9794 3.43877,-1.30412 2.87769,-1.00854 8.13965,-4.4226 0.31093,-0.20174 0.52019,-0.55795 0.64164,-0.90814 0.27598,-0.79568 -0.51031,-1.61003 -0.88117,-2.19169 -1.85386,-2.0435 -4.10779,-3.70104 -6.09484,-5.61089 -1.77588,-1.6786 -3.45987,-3.46264 -5.3753,-4.98423 -1.29966,-0.96071 -2.49756,-2.051156 -3.65834,-3.173396 0,0 -5.82634,3.570376 -5.82634,3.570376 z" />
    <path
       style="fill:#000000;stroke:#000000;stroke-width:2.64583"
       id="path126"
       d="m 445.89713,88.736009 c -1.43269,0.05441 -2.86716,0.04259 -4.30066,0.04155 -1.45728,-0.0024 -2.91456,-0.0044 -4.37184,-0.0056 -3.3279,-0.06488 -4.60259,1.524738 -8.06769,3.844695 -0.16652,0.11149 -0.3377,1.29032 -0.35338,1.37716 -0.0671,2.83879 0.96499,5.4458 2.30045,7.892696 1.93324,2.94583 4.23998,5.62983 6.56243,8.2733 1.35938,1.83659 3.01021,3.40534 4.5735,5.05636 1.38576,1.60982 3.00039,2.99787 4.62451,4.35853 0.9689,0.76577 1.96808,1.49454 2.98046,2.20247 0,0 5.6914,-3.62387 5.6914,-3.62387 v 0 c -1.0037,-0.71106 -2.03269,-1.38447 -3.00684,-2.13494 -1.66062,-1.28023 -3.25281,-2.66309 -4.64041,-4.23988 -1.55169,-1.66353 -3.16855,-3.26391 -4.64372,-4.9977 -2.35061,-2.54286 -4.70905,-5.14355 -6.49665,-8.121616 -1.17942,-2.3641 -2.32455,-4.84857 -1.86682,-7.561732 0.0809,-0.211709 0.13107,-0.437841 0.24259,-0.635124 0.0839,-0.148445 0.48616,-0.465569 0.33502,-0.386612 -11.19458,5.847918 -5.9859,2.619123 -3.68635,2.657009 1.46237,-0.0011 2.92474,-0.0033 4.38711,-0.0056 1.39534,-0.0011 2.79185,-0.01453 4.18629,0.04155 0,0 5.5506,-4.03275 5.5506,-4.03275 z" />
    <path
       style="fill:#000000;stroke:#000000;stroke-width:2.64583"
       id="path128"
       d="m 477.28911,161.38682 c 0.15229,-0.13335 0.29792,-0.27472 0.45688,-0.40006 0.55912,-0.44091 0.94337,-0.68246 1.56268,-1.05427 0.31862,-0.19126 1.28638,-0.74477 0.96528,-0.5577 -4.89444,2.85169 -6.17339,3.43631 -3.40979,2.09538 2.08804,-0.9703 4.34983,-1.31339 6.62229,-1.49025 1.99141,-0.11415 3.98705,-0.10442 5.98088,-0.0947 1.8802,-0.0669 3.73721,0.0339 5.59556,0.30915 1.35276,0.0929 2.57191,0.6285 3.74417,1.27241 0.94142,0.47935 1.84521,1.00052 2.70698,1.61137 0.11436,0.098 0.22868,0.19594 0.34303,0.29391 0,0 5.77477,-3.58214 5.77477,-3.58214 v 0 c -0.12988,-0.12104 -0.25976,-0.24207 -0.38962,-0.3631 -0.88942,-0.60796 -1.76348,-1.21438 -2.75752,-1.64768 -1.19898,-0.72049 -2.53357,-1.32379 -3.93848,-1.44879 -1.89545,-0.27122 -3.77536,-0.4533 -5.69563,-0.35331 -2.00305,-0.005 -4.00838,-0.0461 -6.00977,0.0524 -2.32447,0.16086 -4.65839,0.42559 -6.8248,1.34636 -3.93361,1.72043 -7.60378,4.03077 -11.10363,6.50605 0,0 6.37672,-2.49503 6.37672,-2.49503 z" />
    <path
       style="fill:#000000;stroke:#000000;stroke-width:2.64583"
       id="path130"
       d="m 271.27888,146.59415 c 0.34731,1.71538 1.49264,3.03173 2.60432,4.31652 1.6765,1.6387 3.796,2.68208 5.8348,3.78967 1.8406,1.04409 3.61833,2.19218 5.43457,3.2772 1.90992,1.16598 3.93882,2.10241 5.99188,2.98221 1.58203,0.75225 3.24141,1.30913 4.85617,1.98346 1.26018,0.4916 2.50512,1.0076 3.80679,1.37982 0,0 5.54197,-3.81283 5.54197,-3.81283 v 0 c -1.30593,-0.31224 -2.53352,-0.81149 -3.78736,-1.28374 -1.62427,-0.66373 -3.26469,-1.27608 -4.87463,-1.97263 -2.05607,-0.80902 -4.08934,-1.68513 -5.95288,-2.88631 -1.81893,-1.10614 -3.63432,-2.21657 -5.47069,-3.2933 -1.98384,-1.05121 -4.03275,-2.04209 -5.68793,-3.59391 -0.98687,-1.15209 -2.13474,-2.39972 -2.18387,-4.00095 0,0 -6.11314,3.11479 -6.11314,3.11479 z" />
    <ellipse
       style="fill:#cccccc;stroke:#cccccc;stroke-width:3.0316"
       id="ellipse132"
       cx="691.53461"
       cy="105.28976"
       rx="72.601227"
       ry="69.689468" />
    <ellipse
       style="fill:#f9f9f9;stroke:#cccccc;stroke-width:2.52791"
       id="ellipse134"
       cx="628.70447"
       cy="227.28484"
       rx="16.284712"
       ry="22.682964"
       transform="rotate(-12.687911)" />
    <ellipse
       style="fill:#f9f9f9;stroke:#cccccc;stroke-width:2.49144"
       id="ellipse136"
       cx="702.15649"
       cy="-159.73981"
       rx="16.302952"
       ry="22.008434"
       transform="rotate(18.89367)" />
    <circle
       style="fill:#000000;stroke:#000000;stroke-width:4.47902"
       id="circle138"
       cx="663.39404"
       cy="96.844788"
       r="5.3773227" />
    <circle
       style="fill:#000000;stroke:#000000;stroke-width:4.68271"
       id="circle140"
       cx="714.19794"
       cy="90.641495"
       r="5.6218619" />
    <path
       style="fill:#000000;stroke:#000000;stroke-width:2.64583"
       id="path142"
       d="m 678.32801,43.159284 c 2.20004,-2.655361 3.8703,-5.702692 5.44587,-8.75587 0.95751,-1.838819 1.66768,-3.772773 1.93407,-5.829818 0.093,-0.939618 0.0775,-1.88481 0.0677,-2.827528 0,0 -6.94466,3.546546 -6.94466,3.546546 v 0 c 0.007,0.904158 0.0177,1.811073 -0.0846,2.711117 -0.27113,1.921351 -0.92197,3.742306 -1.79028,5.476729 -1.56842,3.09476 -3.24334,6.260018 -5.86686,8.600596 0,0 7.23871,-2.921772 7.23871,-2.921772 z" />
    <path
       style="fill:#000000;stroke:#000000;stroke-width:2.64583"
       id="path144"
       d="m 684.21742,46.736815 c 2.40278,-1.442174 4.85712,-2.801731 7.20834,-4.326524 0.27317,-0.177155 0.41443,-0.502275 0.62306,-0.752235 0.9093,-1.089416 1.70967,-2.165548 2.38104,-3.417816 0.69918,-1.558189 0.76646,-3.255118 0.83279,-4.932521 -0.0226,-1.386342 0.0243,-2.742337 0.34086,-4.095363 0.1603,-0.998578 0.42833,-1.966786 0.69738,-2.939585 0,0 -6.98924,3.334152 -6.98924,3.334152 v 0 c -0.25483,0.986899 -0.47398,1.980065 -0.68129,2.977944 -0.26368,1.391973 -0.28722,2.790195 -0.26905,4.204256 -0.0651,1.579578 -0.1998,3.168112 -0.95735,4.590962 -0.49935,0.855208 -1.03186,1.645335 -1.67828,2.399755 -1.99713,2.330802 -5.93641,4.483346 4.63265,-1.955178 0,0 -6.14091,4.912153 -6.14091,4.912153 z" />
    <path
       style="fill:#000000;stroke:#000000;stroke-width:2.64583"
       id="path146"
       d="m 704.59597,44.18805 c 1.51473,-2.502596 2.38407,-5.293088 3.26881,-8.060428 0.61066,-1.760223 1.02501,-3.576479 1.44357,-5.388705 0,0 -6.74336,3.252427 -6.74336,3.252427 v 0 c -0.37797,1.777691 -0.78198,3.550127 -1.37624,5.271395 -0.97327,2.800858 -1.9419,5.677714 -3.80621,8.03385 0,0 7.21343,-3.108539 7.21343,-3.108539 z" />
    <path
       style="fill:#000000;stroke:#000000;stroke-width:2.64583"
       id="path148"
       d="m 652.59446,50.367296 c 2.7995,-2.280688 7.07583,-3.437851 9.69411,-6.234457 0.90537,-0.967031 0.89222,-1.053293 1.66281,-2.200526 1.02676,-1.751282 2.01283,-3.520863 2.87058,-5.360773 0,0 -6.88168,3.13219 -6.88168,3.13219 v 0 c -0.86032,1.798659 -1.79686,3.563207 -2.90587,5.223502 -0.83738,1.076447 -0.85869,1.19706 -1.82138,2.094915 -2.18052,2.033694 -8.15651,5.000795 3.49216,-1.542854 0,0 -6.11073,4.888003 -6.11073,4.888003 z" />
    <path
       style="fill:#000000;stroke:#000000;stroke-width:2.64583"
       id="path150"
       d="m 667.32364,35.424235 c 0.0698,-2.037548 0.21488,-4.07135 0.31798,-6.107311 0.0452,-1.290825 0.0726,-2.582127 0.0899,-3.873592 0,0 -6.9189,3.521138 -6.9189,3.521138 v 0 c 0.005,1.271857 0.009,2.544072 -0.0336,3.815429 -0.0555,2.033328 -0.10412,4.084339 -0.49507,6.086023 0,0 7.03972,-3.441687 7.03972,-3.441687 z" />
    <path
       style="fill:#000000;stroke:#000000;stroke-width:2.64583"
       id="path152"
       d="m 717.92572,46.119728 c 1.25919,-2.706558 2.35838,-5.465178 3.22646,-8.320344 0.58849,-2.302132 1.07225,-4.631415 1.41131,-6.983479 0.17331,-1.250193 0.11118,-2.539095 0.6062,-3.718658 0.059,-0.150227 0.11811,-0.300458 0.17717,-0.450686 0,0 -7.07554,3.299018 -7.07554,3.299018 v 0 c -0.0533,0.157951 -0.10651,0.3159 -0.15976,0.473851 -0.3047,1.249518 -0.32456,2.520532 -0.45007,3.796368 -0.29241,2.286585 -0.73195,4.556959 -1.29452,6.791958 -0.87081,2.857425 -1.97214,5.688959 -3.59029,8.212491 0,0 7.14904,-3.100519 7.14904,-3.100519 z" />
    <path
       style="fill:#000000;stroke:#000000;stroke-width:2.64583"
       id="path154"
       d="m 692.18002,99.713831 c 1.29366,1.036319 2.51426,2.160699 3.82453,3.178809 1.89243,1.54826 3.74229,3.14778 5.54561,4.79983 1.9761,1.85423 4.11726,3.59222 5.86756,5.67092 0.20061,0.39542 1.07424,1.2522 0.56396,1.76859 -0.20569,0.20816 -1.02552,0.56313 -0.77708,0.4085 4.51287,-2.80876 6.27184,-3.50416 3.16222,-2.14737 -2.6275,1.37887 -5.4669,2.15903 -8.28799,3.01169 -4.23373,1.14665 -7.87861,3.63883 -11.54409,5.99021 -1.35284,1.00525 -2.17982,2.53138 -2.83226,4.05368 -0.33089,0.71544 -0.61087,1.43265 -0.99729,2.1199 0,0 6.13695,-2.76921 6.13695,-2.76921 v 0 c 0.33007,-0.70859 0.62871,-1.4296 0.96163,-2.13691 0.70363,-1.44332 1.5652,-2.81742 2.9532,-3.6922 2.3699,-1.5467 0.80071,-0.49957 -4.08609,2.24862 -0.30059,0.16904 0.58788,-0.36159 0.89286,-0.52252 1.05751,-0.55804 2.18919,-0.94923 3.33444,-1.28257 2.81339,-0.90659 5.72349,-1.52856 8.33654,-2.9794 3.43877,-1.30412 2.87769,-1.00854 8.13965,-4.4226 0.31093,-0.20174 0.52019,-0.55795 0.64164,-0.90814 0.27598,-0.79568 -0.51031,-1.61003 -0.88117,-2.19169 -1.85386,-2.0435 -4.10779,-3.70104 -6.09484,-5.61089 -1.77588,-1.6786 -3.45987,-3.46264 -5.3753,-4.984229 -1.29966,-0.96071 -2.49756,-2.051156 -3.65834,-3.173396 0,0 -5.82634,3.570376 -5.82634,3.570376 z" />
    <path
       style="fill:#000000;stroke:#000000;stroke-width:2.64583"
       id="path156"
       d="m 632.25126,86.65771 c -1.43269,0.05441 -2.86716,0.04259 -4.30066,0.04155 -1.45728,-0.0024 -2.91456,-0.0044 -4.37184,-0.0056 -3.3279,-0.06488 -4.60259,1.524738 -8.06769,3.844695 -0.16652,0.11149 -0.3377,1.29032 -0.35338,1.37716 -0.0671,2.83879 0.96499,5.4458 2.30045,7.892696 1.93324,2.945829 4.23998,5.629829 6.56243,8.273299 1.35938,1.83659 3.01021,3.40534 4.5735,5.05636 1.38576,1.60982 3.00039,2.99787 4.62451,4.35853 0.9689,0.76577 1.96808,1.49454 2.98046,2.20247 0,0 5.6914,-3.62387 5.6914,-3.62387 v 0 c -1.0037,-0.71106 -2.03269,-1.38447 -3.00684,-2.13494 -1.66062,-1.28023 -3.25281,-2.66309 -4.64041,-4.23988 -1.55169,-1.66353 -3.16855,-3.26391 -4.64372,-4.9977 -2.35061,-2.54286 -4.70905,-5.143549 -6.49665,-8.121615 -1.17942,-2.3641 -2.32455,-4.84857 -1.86682,-7.561732 0.0809,-0.211709 0.13107,-0.437841 0.24259,-0.635124 0.0839,-0.148445 0.48616,-0.465569 0.33502,-0.386612 -11.19458,5.847918 -5.9859,2.619123 -3.68635,2.657009 1.46237,-0.0011 2.92474,-0.0033 4.38711,-0.0056 1.39534,-0.0011 2.79185,-0.01453 4.18629,0.04155 0,0 5.5506,-4.03275 5.5506,-4.03275 z" />
    <path
       style="fill:#000000;stroke:#000000;stroke-width:2.64583"
       id="path160"
       d="m 701.80973,162.67738 c 3.75335,0.87424 8.17559,-0.1791 11.58803,-1.99285 1.80541,-0.91121 3.54018,-1.93452 5.13819,-3.17469 1.82324,-1.44394 3.57424,-2.94286 5.03984,-4.75218 1.33553,-1.56414 2.15102,-3.46784 3.27468,-5.16638 0.72172,-1.00421 1.36694,-2.05658 1.96379,-3.13853 0,0 -6.73371,0.28134 -6.73371,0.28134 v 0 c -0.60031,1.06173 -1.25435,2.0888 -1.93104,3.10349 -1.01654,1.71305 -1.8539,3.54367 -3.1634,5.06984 -1.51764,1.73399 -3.27993,3.21891 -5.1205,4.60224 -1.61277,1.16898 -3.32285,2.18356 -5.1162,3.05344 -0.88687,0.41092 -1.76766,0.81075 -2.72485,1.03475 -0.30228,0.0708 -1.22678,0.18494 -0.91723,0.16157 1.80774,-0.1364 8.18884,-0.73521 5.41586,-0.49686 0,0 -6.71346,1.41482 -6.71346,1.41482 z" />
    <ellipse
       style="fill:#cccccc;stroke:#cccccc;stroke-width:3.0316"
       id="ellipse176"
       cx="886.89471"
       cy="103.21146"
       rx="72.601227"
       ry="69.689468" />
    <ellipse
       style="fill:#f9f9f9;stroke:#cccccc;stroke-width:2.52791"
       id="ellipse178"
       cx="861.99072"
       cy="-29.599104"
       rx="16.284712"
       ry="22.682964"
       transform="rotate(7.3932963)" />
    <ellipse
       style="fill:#f9f9f9;stroke:#cccccc;stroke-width:2.49144"
       id="ellipse180"
       cx="886.31781"
       cy="-224.96625"
       rx="16.302952"
       ry="22.008434"
       transform="rotate(18.89367)" />
    <circle
       style="fill:#000000;stroke:#000000;stroke-width:4.47902"
       id="circle182"
       cx="864.29626"
       cy="74.676262"
       r="5.3773227" />
    <circle
       style="fill:#000000;stroke:#000000;stroke-width:4.68271"
       id="circle184"
       cx="919.25677"
       cy="70.55127"
       r="5.6218619" />
    <path
       style="fill:#000000;stroke:#000000;stroke-width:2.64583"
       id="path186"
       d="m 873.68811,41.080985 c 2.20004,-2.655361 3.8703,-5.702692 5.44587,-8.75587 0.95751,-1.838819 1.66768,-3.772773 1.93407,-5.829818 0.093,-0.939618 0.0775,-1.88481 0.0677,-2.827528 0,0 -6.94466,3.546546 -6.94466,3.546546 v 0 c 0.007,0.904158 0.0177,1.811073 -0.0846,2.711117 -0.27113,1.921351 -0.92197,3.742306 -1.79028,5.476729 -1.56842,3.09476 -3.24334,6.260018 -5.86686,8.600596 0,0 7.23871,-2.921772 7.23871,-2.921772 z" />
    <path
       style="fill:#000000;stroke:#000000;stroke-width:2.64583"
       id="path188"
       d="m 879.57752,44.658516 c 2.40278,-1.442174 4.85712,-2.801731 7.20834,-4.326524 0.27317,-0.177155 0.41443,-0.502275 0.62306,-0.752235 0.9093,-1.089416 1.70967,-2.165548 2.38104,-3.417816 0.69918,-1.558189 0.76646,-3.255118 0.83279,-4.932521 -0.0226,-1.386342 0.0243,-2.742337 0.34086,-4.095363 0.1603,-0.998578 0.42833,-1.966786 0.69738,-2.939585 0,0 -6.98924,3.334152 -6.98924,3.334152 v 0 c -0.25483,0.986899 -0.47398,1.980065 -0.68129,2.977944 -0.26368,1.391973 -0.28722,2.790195 -0.26905,4.204256 -0.0651,1.579578 -0.1998,3.168112 -0.95735,4.590962 -0.49935,0.855208 -1.03186,1.645335 -1.67828,2.399755 -1.99713,2.330802 -5.93641,4.483346 4.63265,-1.955178 0,0 -6.14091,4.912153 -6.14091,4.912153 z" />
    <path
       style="fill:#000000;stroke:#000000;stroke-width:2.64583"
       id="path190"
       d="m 899.95607,42.109751 c 1.51473,-2.502596 2.38407,-5.293088 3.26881,-8.060428 0.61066,-1.760223 1.02501,-3.576479 1.44357,-5.388705 0,0 -6.74336,3.252427 -6.74336,3.252427 v 0 c -0.37797,1.777691 -0.78198,3.550127 -1.37624,5.271395 -0.97327,2.800858 -1.9419,5.677714 -3.80621,8.03385 0,0 7.21343,-3.108539 7.21343,-3.108539 z" />
    <path
       style="fill:#000000;stroke:#000000;stroke-width:2.64583"
       id="path192"
       d="m 847.95456,48.288997 c 2.7995,-2.280688 7.07583,-3.437851 9.69411,-6.234457 0.90537,-0.967031 0.89222,-1.053293 1.66281,-2.200526 1.02676,-1.751282 2.01283,-3.520863 2.87058,-5.360773 0,0 -6.88168,3.13219 -6.88168,3.13219 v 0 c -0.86032,1.798659 -1.79686,3.563207 -2.90587,5.223502 -0.83738,1.076447 -0.85869,1.19706 -1.82138,2.094915 -2.18052,2.033694 -8.15651,5.000795 3.49216,-1.542854 0,0 -6.11073,4.888003 -6.11073,4.888003 z" />
    <path
       style="fill:#000000;stroke:#000000;stroke-width:2.64583"
       id="path194"
       d="m 862.68374,33.345936 c 0.0698,-2.037548 0.21488,-4.07135 0.31798,-6.107311 0.0452,-1.290825 0.0726,-2.582127 0.0899,-3.873592 0,0 -6.9189,3.521138 -6.9189,3.521138 v 0 c 0.005,1.271857 0.009,2.544072 -0.0336,3.815429 -0.0555,2.033328 -0.10412,4.084339 -0.49507,6.086023 0,0 7.03972,-3.441687 7.03972,-3.441687 z" />
    <path
       style="fill:#000000;stroke:#000000;stroke-width:2.64583"
       id="path196"
       d="m 913.28582,44.041429 c 1.25919,-2.706558 2.35838,-5.465178 3.22646,-8.320344 0.58849,-2.302132 1.07225,-4.631415 1.41131,-6.983479 0.17331,-1.250193 0.11118,-2.539095 0.6062,-3.718658 0.059,-0.150227 0.11811,-0.300458 0.17717,-0.450686 0,0 -7.07554,3.299018 -7.07554,3.299018 v 0 c -0.0533,0.157951 -0.10651,0.3159 -0.15976,0.473851 -0.3047,1.249518 -0.32456,2.520532 -0.45007,3.796368 -0.29241,2.286585 -0.73195,4.556959 -1.29452,6.791958 -0.87081,2.857425 -1.97214,5.688959 -3.59029,8.212491 0,0 7.14904,-3.100519 7.14904,-3.100519 z" />
    <path
       style="fill:#000000;stroke:#000000;stroke-width:2.64583"
       id="path198"
       d="m 887.54012,97.635532 c 1.29366,1.036319 2.51426,2.160699 3.82453,3.178808 1.89243,1.54826 3.74229,3.14778 5.54561,4.79983 1.9761,1.85423 4.11726,3.59222 5.86756,5.67092 0.20061,0.39542 1.07424,1.2522 0.56396,1.76859 -0.20569,0.20816 -1.02552,0.56313 -0.77708,0.4085 4.51287,-2.80876 6.27184,-3.50416 3.16222,-2.14737 -2.6275,1.37887 -5.4669,2.15903 -8.28799,3.01169 -4.23373,1.14665 -7.87861,3.63883 -11.54409,5.99021 -1.35284,1.00525 -2.17982,2.53138 -2.83226,4.05368 -0.33089,0.71544 -0.61087,1.43265 -0.99729,2.1199 0,0 6.13695,-2.76921 6.13695,-2.76921 v 0 c 0.33007,-0.70859 0.62871,-1.4296 0.96163,-2.13691 0.70363,-1.44332 1.5652,-2.81742 2.9532,-3.6922 2.3699,-1.5467 0.80071,-0.49957 -4.08609,2.24862 -0.30059,0.16904 0.58788,-0.36159 0.89286,-0.52252 1.05751,-0.55804 2.18919,-0.94923 3.33444,-1.28257 2.81339,-0.90659 5.72349,-1.52856 8.33654,-2.9794 3.43877,-1.30412 2.87769,-1.00854 8.13965,-4.4226 0.31093,-0.20174 0.52019,-0.55795 0.64164,-0.90814 0.27598,-0.79568 -0.51031,-1.61003 -0.88117,-2.19169 -1.85386,-2.0435 -4.10779,-3.70104 -6.09484,-5.61089 -1.77588,-1.6786 -3.45987,-3.462639 -5.3753,-4.984228 -1.29966,-0.96071 -2.49756,-2.051156 -3.65834,-3.173396 0,0 -5.82634,3.570376 -5.82634,3.570376 z" />
    <path
       style="fill:#000000;stroke:#000000;stroke-width:2.64583"
       id="path200"
       d="m 827.61136,84.579411 c -1.43269,0.05441 -2.86716,0.04259 -4.30066,0.04155 -1.45728,-0.0024 -2.91456,-0.0044 -4.37184,-0.0056 -3.3279,-0.06488 -4.60259,1.524738 -8.06769,3.844695 -0.16652,0.11149 -0.3377,1.29032 -0.35338,1.37716 -0.0671,2.83879 0.96499,5.4458 2.30045,7.892696 1.93324,2.945828 4.23998,5.629828 6.56243,8.273298 1.35938,1.83659 3.01021,3.40534 4.5735,5.05636 1.38576,1.60982 3.00039,2.99787 4.62451,4.35853 0.9689,0.76577 1.96808,1.49454 2.98046,2.20247 0,0 5.6914,-3.62387 5.6914,-3.62387 v 0 c -1.0037,-0.71106 -2.03269,-1.38447 -3.00684,-2.13494 -1.66062,-1.28023 -3.25281,-2.66309 -4.64041,-4.23988 -1.55169,-1.66353 -3.16855,-3.26391 -4.64372,-4.9977 -2.35061,-2.54286 -4.70905,-5.143548 -6.49665,-8.121614 -1.17942,-2.3641 -2.32455,-4.84857 -1.86682,-7.561732 0.0809,-0.211709 0.13107,-0.437841 0.24259,-0.635124 0.0839,-0.148445 0.48616,-0.465569 0.33502,-0.386612 -11.19458,5.847918 -5.9859,2.619123 -3.68635,2.657009 1.46237,-0.0011 2.92474,-0.0033 4.38711,-0.0056 1.39534,-0.0011 2.79185,-0.01453 4.18629,0.04155 0,0 5.5506,-4.03275 5.5506,-4.03275 z" />
    <path
       style="fill:#000000;stroke:#000000;stroke-width:2.64583"
       id="path202"
       d="m 897.16983,160.59908 c 3.75335,0.87424 8.17559,-0.1791 11.58803,-1.99285 1.80541,-0.91121 3.54018,-1.93452 5.13819,-3.17469 1.82324,-1.44394 3.57424,-2.94286 5.03984,-4.75218 1.33553,-1.56414 2.15102,-3.46784 3.27468,-5.16638 0.72172,-1.00421 1.36694,-2.05658 1.96379,-3.13853 0,0 -6.73371,0.28134 -6.73371,0.28134 v 0 c -0.60031,1.06173 -1.25435,2.0888 -1.93104,3.10349 -1.01654,1.71305 -1.8539,3.54367 -3.1634,5.06984 -1.51764,1.73399 -3.27993,3.21891 -5.1205,4.60224 -1.61277,1.16898 -3.32285,2.18356 -5.1162,3.05344 -0.88687,0.41092 -1.76766,0.81075 -2.72485,1.03475 -0.30228,0.0708 -1.22678,0.18494 -0.91723,0.16157 1.80774,-0.1364 8.18884,-0.73521 5.41586,-0.49686 0,0 -6.71346,1.41482 -6.71346,1.41482 z" />
    <ellipse
       style="fill:#cccccc;stroke:#cccccc;stroke-width:3.0316"
       id="ellipse204"
       cx="1078.791"
       cy="100.44039"
       rx="72.601227"
       ry="69.689468" />
    <ellipse
       style="fill:#f9f9f9;stroke:#cccccc;stroke-width:2.52791"
       id="ellipse206"
       cx="1051.9351"
       cy="-57.04026"
       rx="16.284712"
       ry="22.682964"
       transform="rotate(7.3932963)" />
    <ellipse
       style="fill:#f9f9f9;stroke:#cccccc;stroke-width:2.49144"
       id="ellipse208"
       cx="1066.9777"
       cy="-289.7265"
       rx="16.302952"
       ry="22.008434"
       transform="rotate(18.89367)" />
    <circle
       style="fill:#000000;stroke:#000000;stroke-width:4.47902"
       id="circle210"
       cx="1056.1925"
       cy="71.905197"
       r="5.3773227" />
    <circle
       style="fill:#000000;stroke:#000000;stroke-width:4.68271"
       id="circle212"
       cx="1111.1531"
       cy="67.780205"
       r="5.6218619" />
    <path
       style="fill:#000000;stroke:#000000;stroke-width:2.64583"
       id="path214"
       d="m 1065.5844,38.30992 c 2.2,-2.655361 3.8703,-5.702692 5.4458,-8.75587 0.9576,-1.838819 1.6677,-3.772773 1.9341,-5.829818 0.093,-0.939618 0.077,-1.88481 0.068,-2.827528 0,0 -6.9446,3.546546 -6.9446,3.546546 v 0 c 0.01,0.904158 0.018,1.811073 -0.085,2.711117 -0.2712,1.921351 -0.922,3.742306 -1.7903,5.476729 -1.5684,3.09476 -3.2434,6.260018 -5.8669,8.600596 0,0 7.2387,-2.921772 7.2387,-2.921772 z" />
    <path
       style="fill:#000000;stroke:#000000;stroke-width:2.64583"
       id="path216"
       d="m 1071.4738,41.887451 c 2.4028,-1.442174 4.8571,-2.801731 7.2083,-4.326524 0.2732,-0.177155 0.4145,-0.502275 0.6231,-0.752235 0.9093,-1.089416 1.7097,-2.165548 2.381,-3.417816 0.6992,-1.558189 0.7665,-3.255118 0.8328,-4.932521 -0.023,-1.386342 0.024,-2.742337 0.3409,-4.095363 0.1603,-0.998578 0.4283,-1.966786 0.6974,-2.939585 0,0 -6.9893,3.334152 -6.9893,3.334152 v 0 c -0.2548,0.986899 -0.474,1.980065 -0.6813,2.977944 -0.2637,1.391973 -0.2872,2.790195 -0.269,4.204256 -0.065,1.579578 -0.1998,3.168112 -0.9574,4.590962 -0.4993,0.855208 -1.0318,1.645335 -1.6783,2.399755 -1.9971,2.330802 -5.9364,4.483346 4.6327,-1.955178 0,0 -6.1409,4.912153 -6.1409,4.912153 z" />
    <path
       style="fill:#000000;stroke:#000000;stroke-width:2.64583"
       id="path218"
       d="m 1091.8523,39.338686 c 1.5148,-2.502596 2.3841,-5.293088 3.2688,-8.060428 0.6107,-1.760223 1.0251,-3.576479 1.4436,-5.388705 0,0 -6.7433,3.252427 -6.7433,3.252427 v 0 c -0.378,1.777691 -0.782,3.550127 -1.3763,5.271395 -0.9733,2.800858 -1.9419,5.677714 -3.8062,8.03385 0,0 7.2134,-3.108539 7.2134,-3.108539 z" />
    <path
       style="fill:#000000;stroke:#000000;stroke-width:2.64583"
       id="path220"
       d="m 1039.8508,45.517932 c 2.7995,-2.280688 7.0759,-3.437851 9.6941,-6.234457 0.9054,-0.967031 0.8923,-1.053293 1.6628,-2.200526 1.0268,-1.751282 2.0129,-3.520863 2.8706,-5.360773 0,0 -6.8817,3.13219 -6.8817,3.13219 v 0 c -0.8603,1.798659 -1.7968,3.563207 -2.9058,5.223502 -0.8374,1.076447 -0.8587,1.19706 -1.8214,2.094915 -2.1805,2.033694 -8.1565,5.000795 3.4922,-1.542854 0,0 -6.1108,4.888003 -6.1108,4.888003 z" />
    <path
       style="fill:#000000;stroke:#000000;stroke-width:2.64583"
       id="path222"
       d="m 1054.58,30.574871 c 0.07,-2.037548 0.2149,-4.07135 0.318,-6.107311 0.045,-1.290825 0.073,-2.582127 0.09,-3.873592 0,0 -6.9189,3.521138 -6.9189,3.521138 v 0 c 0.01,1.271857 0.01,2.544072 -0.034,3.815429 -0.055,2.033328 -0.1041,4.084339 -0.4951,6.086023 0,0 7.0397,-3.441687 7.0397,-3.441687 z" />
    <path
       style="fill:#000000;stroke:#000000;stroke-width:2.64583"
       id="path224"
       d="m 1105.1821,41.270364 c 1.2592,-2.706558 2.3584,-5.465178 3.2264,-8.320344 0.5885,-2.302132 1.0723,-4.631415 1.4114,-6.983479 0.1733,-1.250193 0.1111,-2.539095 0.6062,-3.718658 0.059,-0.150227 0.1181,-0.300458 0.1771,-0.450686 0,0 -7.0755,3.299018 -7.0755,3.299018 v 0 c -0.053,0.157951 -0.1065,0.3159 -0.1598,0.473851 -0.3047,1.249518 -0.3245,2.520532 -0.45,3.796368 -0.2925,2.286585 -0.732,4.556959 -1.2946,6.791958 -0.8708,2.857425 -1.9721,5.688959 -3.5903,8.212491 0,0 7.1491,-3.100519 7.1491,-3.100519 z" />
    <path
       style="fill:#000000;stroke:#000000;stroke-width:2.64583"
       id="path226"
       d="m 1079.4364,94.864467 c 1.2936,1.036319 2.5142,2.160699 3.8245,3.178808 1.8924,1.54826 3.7423,3.147775 5.5456,4.799825 1.9761,1.85423 4.1173,3.59222 5.8676,5.67092 0.2006,0.39542 1.0742,1.2522 0.5639,1.76859 -0.2056,0.20816 -1.0255,0.56313 -0.777,0.4085 4.5128,-2.80876 6.2718,-3.50416 3.1622,-2.14737 -2.6275,1.37887 -5.4669,2.15903 -8.288,3.01169 -4.2337,1.14665 -7.8786,3.63883 -11.5441,5.99021 -1.3528,1.00525 -2.1798,2.53138 -2.8323,4.05368 -0.3308,0.71544 -0.6108,1.43265 -0.9972,2.1199 0,0 6.1369,-2.76921 6.1369,-2.76921 v 0 c 0.3301,-0.70859 0.6287,-1.4296 0.9616,-2.13691 0.7037,-1.44332 1.5652,-2.81742 2.9532,-3.6922 2.3699,-1.5467 0.8007,-0.49957 -4.0861,2.24862 -0.3005,0.16904 0.5879,-0.36159 0.8929,-0.52252 1.0575,-0.55804 2.1892,-0.94923 3.3344,-1.28257 2.8134,-0.90659 5.7235,-1.52856 8.3366,-2.9794 3.4388,-1.30412 2.8777,-1.00854 8.1396,-4.4226 0.311,-0.20174 0.5202,-0.55795 0.6417,-0.90814 0.276,-0.79568 -0.5103,-1.61003 -0.8812,-2.19169 -1.8539,-2.0435 -4.1078,-3.70104 -6.0948,-5.610885 -1.7759,-1.6786 -3.4599,-3.462639 -5.3753,-4.984228 -1.2997,-0.96071 -2.4976,-2.051156 -3.6584,-3.173396 0,0 -5.8263,3.570376 -5.8263,3.570376 z" />
    <path
       style="fill:#000000;stroke:#000000;stroke-width:2.64583"
       id="path228"
       d="m 1019.5076,81.808346 c -1.4327,0.05441 -2.8671,0.04259 -4.3006,0.04155 -1.4573,-0.0024 -2.9146,-0.0044 -4.3719,-0.0056 -3.3279,-0.06488 -4.6026,1.524738 -8.0677,3.844695 -0.1665,0.11149 -0.3377,1.29032 -0.3533,1.37716 -0.067,2.83879 0.9649,5.4458 2.3004,7.892696 1.9332,2.945828 4.24,5.629823 6.5624,8.273293 1.3594,1.83659 3.0102,3.40534 4.5735,5.05636 1.3858,1.60982 3.0004,2.99787 4.6245,4.35853 0.9689,0.76577 1.9681,1.49454 2.9805,2.20247 0,0 5.6914,-3.62387 5.6914,-3.62387 v 0 c -1.0037,-0.71106 -2.0327,-1.38447 -3.0068,-2.13494 -1.6607,-1.28023 -3.2528,-2.66309 -4.6404,-4.23988 -1.5517,-1.66353 -3.1686,-3.26391 -4.6438,-4.997695 -2.3506,-2.54286 -4.709,-5.143548 -6.4966,-8.121614 -1.1794,-2.3641 -2.3246,-4.84857 -1.8668,-7.561732 0.081,-0.211709 0.131,-0.437841 0.2426,-0.635124 0.084,-0.148445 0.4861,-0.465569 0.335,-0.386612 -11.19461,5.847918 -5.9859,2.619123 -3.6864,2.657009 1.4624,-0.0011 2.9248,-0.0033 4.3871,-0.0056 1.3954,-0.0011 2.7919,-0.01453 4.1863,0.04155 0,0 5.5506,-4.03275 5.5506,-4.03275 z" />
    <path
       style="fill:#000000;stroke:#000000;stroke-width:2.64583"
       id="path232"
       d="m 1092.3428,134.91395 c 0.3776,1.48127 0.7516,2.96006 0.9995,4.47078 0.2381,1.61954 0.2891,3.25812 0.3183,4.89233 -0.089,2.31334 -0.8102,4.56808 -1.5838,6.73565 -0.5749,1.7057 -1.8352,3.0221 -3.0463,4.30254 0,0 5.9966,-2.51236 5.9966,-2.51236 v 0 c 1.2433,-1.38145 2.5046,-2.79963 3.0658,-4.61383 0.7151,-2.26615 1.4016,-4.58216 1.5354,-6.96651 -0.031,-1.66404 -0.09,-3.32988 -0.3794,-4.97343 -0.2718,-1.55446 -0.6476,-3.08611 -0.8989,-4.64361 0,0 -6.0072,3.30844 -6.0072,3.30844 z" />
  </g>
</svg>
