<?xml version="1.0" encoding="UTF-8" standalone="no"?>
<svg
   xmlns:dc="http://purl.org/dc/elements/1.1/"
   xmlns:cc="http://creativecommons.org/ns#"
   xmlns:rdf="http://www.w3.org/1999/02/22-rdf-syntax-ns#"
   xmlns:svg="http://www.w3.org/2000/svg"
   xmlns="http://www.w3.org/2000/svg"
   xmlns:sodipodi="http://sodipodi.sourceforge.net/DTD/sodipodi-0.dtd"
   xmlns:inkscape="http://www.inkscape.org/namespaces/inkscape"
   sodipodi:docname="hello_world.svg"
   inkscape:version="1.0 (4035a4fb49, 2020-05-01)"
   id="svg8"
   version="1.1"
   viewBox="0 0 210 297"
   height="297mm"
   width="210mm">
  <defs
     id="defs2">
    <rect
       id="rect2990"
       height="25.129422"
       width="103.37795"
       y="106.73924"
       x="-187.95018" />
    <rect
       id="rect2423"
       height="78.263119"
       width="144.02963"
       y="93.709979"
       x="-235.37308" />
    <inkscape:perspective
       sodipodi:type="inkscape:persp3d"
       inkscape:vp_x="52.157527 : 117.60908 : 1"
       inkscape:vp_y="0 : 1000 : 0"
       inkscape:vp_z="209.94006 : 67.762651 : 1"
       inkscape:persp3d-origin="105 : 99 : 1"
       id="perspective917" />
    <filter
       height="1.0007853"
       y="-0.00039263023"
       width="1.0009566"
       x="-0.00047827839"
       id="filter3226"
       style="color-interpolation-filters:sRGB"
       inkscape:collect="always">
      <feGaussianBlur
         id="feGaussianBlur3228"
         stdDeviation="0.033222442"
         inkscape:collect="always" />
    </filter>
  </defs>
  <sodipodi:namedview
     inkscape:snap-text-baseline="false"
     inkscape:window-maximized="1"
     inkscape:window-y="0"
     inkscape:window-x="0"
     inkscape:window-height="708"
     inkscape:window-width="1366"
     showgrid="false"
     inkscape:document-rotation="0"
     inkscape:current-layer="layer1"
     inkscape:document-units="mm"
     inkscape:cy="650.45798"
     inkscape:cx="475.57617"
     inkscape:zoom="0.42671857"
     inkscape:pageshadow="2"
     inkscape:pageopacity="0.0"
     borderopacity="1.0"
     bordercolor="#666666"
     pagecolor="#ffffff"
     id="base"
     inkscape:snap-object-midpoints="true"
     showguides="false" />
  <metadata
     id="metadata5">
    <rdf:RDF>
      <cc:Work
         rdf:about="">
        <dc:format>image/svg+xml</dc:format>
        <dc:type
           rdf:resource="http://purl.org/dc/dcmitype/StillImage" />
        <dc:title></dc:title>
      </cc:Work>
    </rdf:RDF>
  </metadata>
  <g
     style="filter:url(#filter3226)"
     id="layer1"
     inkscape:groupmode="layer"
     inkscape:label="Layer 1">
    <path
       id="rect10"
       style="fill:#170b28;stroke-width:1.7"
       d="M 171.27543,70.084173 40.800225,70.486824 40.978509,148.67637 171.45423,148.27372 Z"
       sodipodi:nodetypes="ccccc" />
    <path
       d="m 185.80684,175.44561 c 0.16262,0.32606 0.32515,0.65215 0.48783,0.97824 l 1.56322,-0.88987 c -0.49831,-0.009 -0.91717,-0.0184 -1.48778,-0.0248 -0.17509,-0.0201 -0.37759,-0.0432 -0.56327,-0.0636 z M 47.055524,256.19034 c -0.23786,0.22108 -0.476727,0.44089 -0.713137,0.66352 0.531037,0.62448 1.055754,1.2543 1.568891,1.89342 0.0838,0.13632 0.16758,0.27932 0.25166,0.4191 -0.37794,-0.98858 -0.741217,-1.98276 -1.107414,-2.97604 z"
       style="fill:#241c1c;stroke-width:1.32292"
       id="path2071" />
    <path
       d="m 29.017006,218.27587 c 0.901374,10.42888 1.091524,20.90468 1.177281,31.36726 0.0176,2.48336 0.0109,4.96702 -0.0618,7.44946 -0.17403,1.46606 -0.19032,2.94672 -0.23689,4.42109 -0.0559,2.04981 0.0621,4.11349 -0.14985,6.15519 -0.531124,2.73426 -2.476222,4.92321 -4.149323,7.05672 -1.471691,1.7616 -2.990702,3.47836 -4.448683,5.25136 0,0 8.402092,-3.57777 8.402092,-3.57777 v 0 c 1.433468,-1.75345 2.941889,-3.44394 4.33382,-5.23129 1.731641,-2.27944 3.653682,-4.64503 4.033099,-7.57479 0.14202,-2.06231 -0.003,-4.13322 0.12987,-6.19761 0.0552,-1.5034 0.172827,-2.99972 0.303417,-4.49738 -0.10697,-2.41275 -0.296977,-4.82154 -0.407807,-7.23413 -0.590327,-10.43634 -1.178914,-20.87819 -1.296724,-31.33281 0,0 -7.628502,3.9447 -7.628502,3.9447 z"
       id="path2345"
       style="fill:#000000;stroke-width:1.32292" />
    <path
       d="m 51.28883,226.64381 -8.424762,3.668 c -1.269354,2.07692 -2.527868,4.15801 -3.883979,6.17999 -1.034814,1.31087 -1.610021,2.83064 -2.130608,4.38939 -0.21016,0.86249 -0.592037,1.66744 -0.995794,2.4536 -0.26903,0.76152 -0.710867,1.38112 -1.179254,2.02882 -0.480497,0.56861 -1.093514,0.97395 -1.673271,1.42678 -0.649477,0.28079 -0.652807,0.90431 -0.839734,1.49655 -0.16207,0.84477 -0.16424,1.73835 -0.0915,2.59519 0.19234,1.5706 1.036744,2.93482 1.872738,4.2416 0.962117,1.43366 2.291418,2.55842 3.596152,3.668 1.360921,1.05474 2.915932,1.82345 4.534573,2.3921 1.365411,0.259 2.609465,0.8017 3.857629,1.39009 1.545401,0.72373 3.080262,1.45692 4.717513,1.94821 1.120484,0.20847 2.187158,0.58697 3.245262,0.9927 0.204827,-0.11401 0.418987,-0.2245 0.654214,-0.32711 1.015657,-0.44304 3.943229,-2.7131 5.61203,-2.86081 0.226727,-0.57844 0.484867,-1.14327 0.792714,-1.6862 0.0727,-0.12824 0.15128,-0.25075 0.23254,-0.37052 -0.972404,-0.38919 -1.945638,-0.781 -2.983262,-0.93999 -1.630621,-0.38032 -3.143525,-1.05008 -4.629146,-1.81643 -1.280491,-0.58512 -2.493295,-1.33781 -3.924806,-1.48725 -1.565391,-0.43472 -3.035635,-1.12865 -4.350606,-2.09083 -1.262584,-1.0134 -2.520425,-2.08773 -3.444222,-3.42976 -0.759584,-1.17726 -1.540311,-2.39574 -1.607121,-3.83749 -0.002,-0.77455 0.002,-1.57468 0.29662,-2.30322 0.20007,-0.51767 0.618757,-0.68057 1.035584,-1.01234 0.594087,-0.47851 1.130364,-1.02725 1.549251,-1.66864 0.455457,-0.68197 0.786177,-1.4234 1.123444,-2.16937 0.363567,-0.83051 0.700817,-1.66695 0.925004,-2.54817 0.482097,-1.48651 1.212364,-2.84776 2.122848,-4.12068 1.331694,-2.06629 2.578605,-4.18868 3.989919,-6.20221 z"
       style="fill:#000000;stroke-width:1.32292"
       id="path2347" />
    <path
       d="m 67.643497,230.34873 c 0.464717,-1.07759 1.232801,-1.97976 2.238365,-2.5894 0.2924,-0.17727 1.203824,-0.64846 0.910007,-0.47353 -2.254268,1.34217 -4.528426,2.65066 -6.792631,3.97598 1.916738,-1.00624 4.039936,-1.33773 6.166874,-1.53854 1.323151,-0.10595 2.651345,-0.10937 3.977766,-0.0995 0.778357,0.0544 1.678481,-0.17149 2.347888,0.30795 0.875754,0.95378 1.297144,2.18567 1.598691,3.41974 0.248757,1.32443 0.247257,2.67828 0.271887,4.0208 0.0588,2.45213 0.0364,4.90512 0.0161,7.35757 -0.0219,1.68874 0.006,3.37458 -0.147117,5.05739 -0.0636,1.46721 -0.811467,2.75788 -1.516451,4.00535 -0.713387,1.4497 -1.698991,2.73292 -2.742015,3.95714 -0.30197,0.33627 -0.450357,0.55074 -0.828717,0.79388 -0.139997,0.09 -0.591487,0.30454 -0.448127,0.22004 14.021012,-8.26417 9.463026,-4.85288 6.539764,-4.014 -1.369584,0.18666 -2.771215,0.0469 -4.144046,-0.0702 -1.083074,-0.0823 -1.175814,-1.04336 -1.307294,-1.94206 -0.235837,-2.04568 -0.0731,-4.10571 0.0442,-6.15348 0.0525,-1.85218 0.771137,-3.52349 1.535501,-5.17563 0.751657,-1.46693 1.359114,-3.01613 2.239148,-4.41322 0.833904,-1.20873 1.792889,-2.29882 3.005212,-3.13124 -1.187533,0.44498 2.884435,-1.76591 1.650241,-1.04692 -13.155355,7.6638 -9.317356,4.95369 -6.418454,3.87444 0.589857,-0.19773 1.211364,-0.24365 1.821051,-0.34538 0,0 7.234608,-5.7649 7.234608,-5.7649 v 0 c -0.482687,0.45271 -1.139124,0.39157 -1.759411,0.49212 -4.157086,0.86982 -7.633945,3.7478 -11.049497,6.19886 -1.125524,0.99433 -2.089568,2.15555 -2.858952,3.44767 -0.789287,1.46157 -1.450644,2.99192 -2.165838,4.49033 -0.748107,1.75446 -1.376224,3.54082 -1.381074,5.47576 -0.0831,2.10957 -0.229897,4.23127 0.004,6.33612 0.20094,1.24437 0.555947,2.59191 1.915221,2.98535 1.423121,0.16647 2.860982,0.16767 4.288226,0.29308 4.090426,-0.41668 7.932655,-3.0063 10.52507,-6.14833 1.002204,-1.28886 1.918438,-2.64008 2.650495,-4.10344 0.713455,-1.37029 1.354561,-2.78776 1.369061,-4.36382 0.0991,-1.69256 0.0651,-3.38571 0.0456,-5.08035 -0.0115,-2.46436 -0.0159,-4.92884 0.0302,-7.39293 -0.002,-1.41951 -0.0246,-2.84619 -0.349457,-4.23655 -0.389249,-1.38698 -0.915766,-2.75352 -1.824461,-3.8904 -0.841614,-0.89906 -1.554041,-0.90708 -2.743225,-0.86586 -1.361961,-0.005 -2.725014,-0.0117 -4.085006,0.0753 -2.177798,0.1662 -4.388496,0.38704 -6.406864,1.28426 -2.935582,1.66365 -5.885887,3.30159 -8.806749,4.99095 -1.421184,0.82199 -2.393008,2.16933 -2.998965,3.66907 0,0 8.349375,-3.88956 8.349375,-3.88956 z"
       id="path2363"
       style="fill:#000000;stroke-width:1.32292" />
    <circle
       r="0.40972161"
       cy="246.86856"
       cx="84.738297"
       style="fill:#000000;stroke:#000000;stroke-width:0.264583"
       id="path2365" />
    <path
       d="m 80.636632,249.59401 c 0.0564,1.47629 0.0249,2.95419 2.6e-4,4.43084 -0.0155,0.63066 -0.0193,1.26134 -0.02,1.89214 -0.002,0.42213 -0.006,0.84423 -0.007,1.26635 -0.0133,0.37321 -0.0232,0.71796 0.12192,1.06621 0.496747,0.59144 1.262564,0.92346 1.958908,1.24112 0.668207,0.29052 1.375114,0.47168 2.081108,0.64285 0.480517,0.0976 0.956807,0.21406 1.436164,0.31711 0,0 7.574855,-5.29474 7.574855,-5.29474 v 0 c -0.481697,-0.0742 -0.961714,-0.16143 -1.431081,-0.29523 -0.676497,-0.11618 -1.333671,-0.31132 -1.995168,-0.49254 -0.495437,-0.18224 -0.891367,-0.40255 -1.333904,-0.6831 -0.0633,-0.0401 -0.128097,-0.14388 -0.195387,-0.11097 -0.0583,0.0285 0.0191,0.12834 0.0287,0.19252 0.0301,-0.26146 0.004,-0.52768 0.012,-0.79096 -0.002,-0.41959 -0.006,-0.83917 -0.007,-1.25876 -7.9e-4,-0.62399 -0.004,-1.24786 -0.0201,-1.8717 -0.025,-1.47678 -0.0556,-2.95474 2.7e-4,-4.43118 0,0 -8.203755,4.18004 -8.203755,4.18004 z"
       id="path2367"
       style="fill:#000000;stroke-width:1.32292" />
    <path
       d="m 89.494141,248.6449 c -0.289737,-1.55311 -0.410567,-3.13035 -0.491477,-4.70606 -0.0869,-1.04286 0.0115,-2.09395 -0.069,-3.13555 -0.0181,-0.56065 -0.115207,-1.06826 -0.303897,-1.59125 -0.17266,-0.54931 -0.368608,-1.08613 -0.465918,-1.65573 -0.0399,-0.54793 -0.18169,-1.07881 -0.25931,-1.62242 -0.0706,-0.49318 -0.0348,-0.99042 -0.131417,-1.47858 -0.11785,-0.51022 -0.16865,-1.03026 -0.19599,-1.55203 -0.0195,-0.49367 -0.0189,-0.98777 -0.0152,-1.48171 0.0384,-0.5045 -0.17223,-0.92379 -0.429027,-1.33856 -0.18459,-0.35545 -0.348867,-0.72202 -0.524437,-1.08324 -0.1509,-0.31541 -0.21735,-0.65779 -0.3177,-0.99038 -0.137007,-0.30876 -0.311837,-0.59665 -0.492777,-0.88102 -0.108497,-0.26478 -0.339097,-0.4473 -0.488667,-0.68367 0,0 -8.018685,4.65706 -8.018685,4.65706 v 0 c 0.15082,0.25001 0.36212,0.44356 0.49763,0.70158 0.137657,0.21263 0.277777,0.42463 0.370407,0.66219 0.11816,0.37178 0.209937,0.7531 0.393127,1.10113 0.18325,0.39408 0.369347,0.78728 0.571247,1.17143 0.17556,0.28652 0.22284,0.54504 0.19185,0.88807 0.006,0.51417 0.004,1.0296 0.0466,1.5423 0.053,0.53684 0.132367,1.06918 0.227437,1.60009 0.0286,0.4997 0.0491,1.00049 0.1415,1.49398 0.0964,0.55289 0.192577,1.10487 0.276417,1.65963 0.1395,0.59693 0.34882,1.17134 0.519957,1.75938 0.14053,0.44222 0.15298,0.90928 0.20368,1.36863 0.0521,1.03413 0.0513,2.07076 0.12622,3.10393 0.119017,1.60249 0.296697,3.19905 0.497947,4.7932 0,0 8.139533,-4.3024 8.139533,-4.3024 z"
       id="path2369"
       style="fill:#000000;stroke-width:1.32292" />
    <path
       d="m 110.65857,210.49948 c -2.09443,-0.0485 -4.46694,1.5162 -6.08438,5.32219 -0.19893,0.38795 -0.39218,0.77991 -0.60927,1.15704 -0.16892,8e-4 -0.33726,0.005 -0.50436,0.0181 -1.65517,0.0104 -3.31119,0.0221 -4.9661,-0.0129 l -7.451178,5.41417 c 1.666781,-0.0344 3.334192,-0.0235 5.001213,-0.0129 0.912484,0.01 1.824761,0.0199 2.737295,0.0171 2.63509,-0.34483 5.61831,-2.21066 7.97211,-3.76465 0.22031,0.95521 0.39057,1.9229 0.52296,2.8939 0.25379,2.2938 0.27824,4.60585 0.29353,6.91124 0.003,1.68303 -0.0264,3.36589 -0.0429,5.04879 -0.007,1.07418 -0.0111,2.14834 -0.01,3.22254 -0.002,1.02872 -0.002,2.0574 -0.002,3.08612 7.9e-4,1.03554 0.003,2.07074 -5.3e-4,3.10627 0.0145,1.33866 0.0209,2.6775 0.0176,4.01629 -2.6e-4,0.49164 -0.005,0.98324 -0.008,1.47485 0.37309,-0.0724 0.64088,-0.0178 0.69867,0.2899 h 2.22415 2.35076 c 0.28236,0.0349 0.59601,0.0305 0.89607,0.017 0.64392,-0.35467 1.32567,-0.565 2.03037,-0.64182 -5.3e-4,-0.62544 -0.002,-1.25083 -0.002,-1.87637 -0.002,-1.14226 -0.0183,-2.28439 -0.0191,-3.42667 -0.003,-1.34472 0.003,-2.68925 0.0176,-4.03386 -0.004,-1.03522 -0.002,-2.07053 -0.001,-3.10575 1.1e-4,-1.02808 5.3e-4,-2.05649 -10e-4,-3.08457 0.003,-1.07182 5.3e-4,-2.14349 -0.003,-3.2153 -0.0114,-1.66889 -0.039,-3.33775 -0.0667,-5.00644 -0.0377,-2.34919 -0.0324,-4.70595 -0.28371,-7.04457 -0.18717,-1.35362 -0.36682,-2.72734 -0.81184,-4.02458 -0.15159,-0.31861 -0.32825,-0.61052 -0.52296,-0.87903 -0.26332,0.11676 -0.81769,0.32627 -1.54254,0.61961 0.15535,-0.30717 0.32876,-0.60196 0.56999,-0.85215 0.36544,0.008 0.61848,0.014 0.8139,0.0243 -0.83038,-1.03083 -1.97211,-1.62876 -3.21324,-1.65779 z m 3.21428,1.65779 c 0.0544,0.0675 0.10701,0.13707 0.15864,0.20826 0.31351,-0.13901 0.26692,-0.18599 -0.15864,-0.20826 z m 1.85208,36.37669 c -0.13679,0.0857 -0.27147,0.17285 -0.39843,0.26716 0.13215,-0.0334 0.2649,-0.0636 0.39843,-0.0873 2e-4,-0.06 -1.2e-4,-0.11989 0,-0.17983 z"
       style="fill:#000000;stroke-width:1.32292"
       id="path2371" />
    <path
       d="m 116.55993,217.54142 c 0.98144,-1.4642 1.78203,-3.0566 2.43095,-4.6943 0.49715,-1.21378 0.5098,-2.52272 0.70298,-3.79587 0.1466,-0.58139 0.04,-1.77566 0.73786,-2.00382 3.22255,-0.12118 0.31403,-0.051 -7.47288,4.44655 -0.0635,0.0367 0.12702,-0.0737 0.19295,-0.10584 0.17724,-0.0864 0.32674,-0.12018 0.52155,-0.11752 0.47731,0.24142 0.76653,0.86511 1.02234,1.31479 0.57195,0.83396 0.91267,1.79095 1.37185,2.68489 0.47975,0.74578 1.23518,1.03725 2.07308,1.16274 0.72874,0.069 1.462,0.055 2.19306,0.0516 0.54547,-0.009 1.09099,-0.0107 1.63649,-0.0163 0,0 7.50339,-5.39976 7.50339,-5.39976 v 0 c -0.55449,-0.0529 -1.1117,-0.0235 -1.66829,-0.0253 -0.71679,0.0128 -1.43365,0.0277 -2.15059,0.0254 -0.53795,-0.004 -1.19105,0.0473 -1.5807,-0.38559 -0.49317,-0.88469 -0.83564,-1.84806 -1.38775,-2.70164 -0.36844,-0.65456 -0.75078,-1.32585 -1.3062,-1.84103 -2.87876,-1.90909 -8.51779,2.70716 -9.46539,4.52853 -0.25862,0.79627 -0.37466,1.62711 -0.47344,2.45659 -0.12589,1.21096 -0.26749,2.42332 -0.76223,3.55203 -0.69491,1.59066 -1.48991,3.15048 -2.56981,4.51867 0,0 8.45078,-3.65481 8.45078,-3.65481 z"
       id="path2373"
       style="fill:#000000;stroke-width:1.32292" />
    <path
       d="m 135.0959,189.15259 c -0.1298,1.52209 -0.2705,3.04317 -0.38783,4.56634 -0.0687,0.72769 -0.0728,1.45788 -0.066,2.18793 0.002,0.69664 -1.1e-4,1.39327 -2e-4,2.08991 -0.002,0.93273 0.0224,1.86514 0.0268,2.7978 0.005,1.23859 -0.005,2.47715 -0.006,3.71573 -0.01,0.89503 -0.0112,1.79003 -0.0125,2.6851 -5.3e-4,1.04003 0.0107,2.07993 0.0215,3.11989 0.002,1.18248 -0.006,2.36495 -0.0168,3.54738 -0.0128,0.70449 -0.0145,1.40892 -0.008,2.11346 0.006,0.91076 0.008,1.82151 0.01,2.73229 7.9e-4,0.73795 -0.0116,1.47581 -0.0192,2.2137 -0.001,0.53981 -5.3e-4,1.07967 0.004,1.61946 0.008,0.82812 0.0126,1.65632 0.0123,2.48447 -0.006,0.76928 -0.006,1.53858 -0.008,2.30787 -0.004,0.65276 -0.002,1.30552 -0.002,1.95827 0.0851,0.70147 -0.11053,1.32819 -0.27816,1.99737 -0.208,0.98202 -0.28335,1.98661 -0.3456,2.98672 -0.0461,0.66942 -0.0306,1.34008 -0.0269,2.01035 0.014,0.90218 0.0102,1.80441 0.0104,2.70665 -0.13076,1.03281 -0.33805,2.05134 -0.47626,3.08385 -0.17574,0.88243 0.0252,1.84774 -0.35293,2.67918 -2.36006,1.86632 -9.34455,5.54242 5.87397,-3.29379 -3.39127,1.43774 -7.84615,2.02894 -9.78065,5.47811 -0.27291,0.4509 -0.52388,0.86575 -0.94921,1.17842 -0.21751,0.1021 -0.10531,0.0648 -0.3361,0.11332 0,0 8.64294,-3.34851 8.64294,-3.34851 v 0 c 0.16884,-0.19962 0.0848,-0.0969 0.25171,-0.3084 0.30532,-0.40013 0.52804,-0.86822 0.93355,-1.18708 2.88413,-1.4503 -0.24359,0.11793 -7.52065,4.27603 -0.0867,0.0495 0.18017,-0.0872 0.27434,-0.12044 0.41871,-0.14783 0.86552,-0.18482 1.28268,-0.33895 2.77982,-1.58452 5.56897,-3.15281 8.33948,-4.75357 0.36954,-0.21351 0.79488,-0.5764 1.03883,-0.93043 0.16945,-0.2459 0.20537,-0.44998 0.29004,-0.73223 0.14209,-0.91873 0.11595,-1.8538 0.26425,-2.77292 0.15605,-1.06815 0.41894,-2.12488 0.43773,-3.2086 -0.002,-0.90428 -0.008,-1.80854 0.003,-2.7128 0.003,-0.65177 0.0147,-1.3038 0.0455,-1.95489 0.0603,-0.95505 0.15682,-1.91015 0.41107,-2.83622 0.17561,-0.73178 0.24671,-1.45318 0.19981,-2.20613 5.3e-4,-0.65214 0.002,-1.3043 -0.002,-1.95644 -0.002,-0.76643 -0.002,-1.53287 -0.008,-2.29928 -2.7e-4,-0.83232 0.005,-1.66466 0.0123,-2.49694 0.004,-0.54108 0.005,-1.08223 0.004,-1.62332 -0.008,-0.73138 -0.02,-1.46272 -0.0192,-2.19416 0.002,-0.9141 0.004,-1.82818 0.01,-2.74227 0.007,-0.70188 0.005,-1.40365 -0.008,-2.10547 -0.0109,-1.17672 -0.0189,-2.35348 -0.0168,-3.53027 0.0107,-1.04727 0.022,-2.09447 0.0215,-3.14181 -0.001,-0.89083 -0.003,-1.78159 -0.0125,-2.67239 -0.002,-1.23646 -0.0117,-2.47291 -0.006,-3.70938 0.004,-0.94184 0.0288,-1.88346 0.0245,-2.82538 -0.002,-0.69405 -0.008,-1.38809 -0.005,-2.08214 0.0116,-0.70761 0.0276,-1.4152 0.0592,-2.12223 0.0762,-1.51239 0.19032,-3.02481 0.41933,-4.52265 0,0 -8.253,4.07949 -8.253,4.07949 z"
       id="path2375"
       style="fill:#000000;stroke-width:1.32292" />
    <path
       d="m 149.29834,207.22096 c 0.0781,1.64761 0.0904,3.27723 -0.3373,4.87748 -0.5394,1.47097 -1.30234,2.81189 -2.25049,4.05197 -0.98135,1.1309 -1.95039,2.2725 -2.9637,3.37542 -0.81962,0.8917 -1.18119,2.05863 -1.85909,3.03781 -0.56663,0.71022 -1.14191,1.40845 -1.51583,2.24254 -0.52799,0.56832 -1.04681,1.161 -1.59064,1.71908 -0.67003,0.52446 -1.13968,1.06936 -0.97927,1.94059 0.73836,1.27175 2.00157,2.17695 3.22074,2.96014 1.31874,0.76425 2.74527,1.32588 4.15648,1.89427 1.27862,0.49286 2.6068,0.83873 3.91587,1.24053 0.65331,0.21291 1.33092,0.32857 1.99007,0.51726 0.33118,0.13162 0.48676,0.59043 0.66556,0.8794 0.36448,0.93045 0.75879,1.82572 1.26818,2.69025 0.33749,0.53901 0.77599,0.99101 1.22679,1.43303 0,0 7.82751,-4.84024 7.82751,-4.84024 v 0 c -0.41434,-0.35576 -0.81096,-0.72161 -1.0957,-1.1962 -0.50849,-0.86635 -0.83595,-1.79283 -1.2344,-2.7108 -0.27245,-0.48562 -0.50159,-1.03136 -0.94752,-1.38414 -0.65613,-0.36076 -1.396,-0.40178 -2.11262,-0.58117 -1.30837,-0.35596 -2.60252,-0.75544 -3.90147,-1.14103 -1.37273,-0.54514 -2.73228,-1.12541 -4.06233,-1.76611 -0.97417,-0.57772 -1.99154,-1.27048 -2.67413,-2.18664 0.38638,-0.45993 0.81598,-0.86994 1.23056,-1.30589 0.5462,-0.6203 1.19318,-1.18506 1.52825,-1.95632 0.46573,-0.74687 1.04552,-1.41263 1.50421,-2.16441 0.56237,-1.00241 1.05216,-2.04847 1.88543,-2.86958 1.00847,-1.12884 2.01298,-2.26751 2.92746,-3.47412 0.90508,-1.34872 1.64563,-2.8035 2.08351,-4.37465 0.32804,-1.68221 0.26687,-3.37933 0.29433,-5.08681 0,0 -8.20046,4.17834 -8.20046,4.17834 z"
       id="path2377"
       style="fill:#000000;stroke-width:1.32292" />
    <path
       d="m 170.33257,203.04744 c -0.49892,1.78614 -0.91505,3.58955 -1.20029,5.42182 -0.14627,0.93828 -0.22322,1.88267 -0.21334,2.83162 0.0157,1.00831 0.0186,2.01667 0.0118,3.02507 -0.004,0.62349 -0.014,1.24698 -0.009,1.87048 0.0112,0.82862 0.0114,1.65732 0.0154,2.486 -0.005,0.89394 2.6e-4,1.78789 -0.005,2.68183 -0.006,0.72634 -0.003,1.45269 -0.007,2.17906 -0.10102,0.87242 0.32416,1.55179 0.81037,2.23822 0.62487,0.76028 1.10761,1.58679 1.36077,2.53766 0.21462,0.79021 0.40154,1.57407 0.70883,2.3359 0.26931,0.62947 0.5112,1.26793 0.60165,1.94872 0.0413,0.41037 0.0325,0.82341 0.026,1.23514 -0.004,0.22421 -0.002,0.11384 -0.006,0.33112 0,0 8.26382,-4.20315 8.26382,-4.20315 v 0 c -5.3e-4,-0.22005 5e-5,-0.10791 -0.002,-0.33644 -0.008,-0.45862 -0.0273,-0.91857 -0.11459,-1.37018 -0.15493,-0.72484 -0.43023,-1.40824 -0.72069,-2.08872 -0.27591,-0.74524 -0.40831,-1.52592 -0.66286,-2.27826 -0.33561,-1.02152 -0.85333,-1.93938 -1.52077,-2.78468 -0.3962,-0.57648 -0.58759,-1.05275 -0.51206,-1.76024 -0.004,-0.72407 -5.3e-4,-1.44813 -0.007,-2.17217 -0.006,-0.89216 -2.6e-4,-1.78433 -0.005,-2.67649 0.004,-0.83408 0.005,-1.66818 0.0151,-2.50221 0.004,-0.62016 -0.007,-1.24025 -0.0166,-1.86033 -0.0139,-1.00474 -0.0226,-2.00975 -2.6e-4,-3.01445 0.0322,-0.89788 0.0786,-1.79608 0.21263,-2.68571 0.28002,-1.80752 0.69199,-3.59484 1.29913,-5.32256 0,0 -8.32337,3.93295 -8.32337,3.93295 z"
       id="path2379"
       style="fill:#000000;stroke-width:1.32292" />
    <path
       d="m 175.56599,191.02604 c 1.04584,-0.69233 2.15923,-1.28512 3.11587,-2.10248 0.47289,-0.54997 0.56122,-1.25671 0.5143,-1.95669 -0.0985,-0.57593 -0.44614,-1.00159 -0.98975,-1.20298 -0.45826,-0.10667 -0.93268,-0.0952 -1.4002,-0.0944 -0.4073,0.003 -0.81458,0.007 -1.22188,0.008 -0.35693,-0.039 -0.71191,0.0233 -1.0661,0.003 -19.39857,5.64289 -5.47582,2.33217 -8.66914,5.66042 -0.0883,0.33357 -0.0128,0.19286 -0.20568,0.43264 0,0 8.46705,-3.7438 8.46705,-3.7438 v 0 c 0.13689,-0.28981 0.0491,-0.17196 0.24475,-0.36679 1.56289,-2.74923 7.85132,-4.23628 -7.16668,3.69455 0.21099,-0.21003 0.61216,-0.22226 0.90041,-0.23064 0.41018,-0.002 0.82036,-0.003 1.23049,-0.008 0.43404,-0.006 0.86836,-0.0112 1.30189,-0.034 0.20546,-0.029 0.34692,-0.24709 0.31972,0.0678 -0.0879,0.54427 -0.34483,0.9065 -0.82367,1.19407 -1.02031,0.71287 -2.09265,1.34658 -3.12621,2.03981 0,0 8.57483,-3.35986 8.57483,-3.35986 z"
       id="path2381"
       style="fill:#000000;stroke-width:1.32292" />
    <path
       transform="scale(0.26458333)"
       id="path2417"
       d=""
       style="fill:#000000;stroke-width:5" />
    <path
       transform="scale(0.26458333)"
       id="path2419"
       d="m 283.43693,959.62454 c -5.02951,-5.0295 -2.04578,-35.65747 4.66843,-47.92137 l 6.87074,-12.54984 0.0232,23.30684 c 0.0222,22.27354 -6.26017,42.46661 -11.56241,37.16437 z"
       style="fill:#216778;stroke-width:5" />
    <text
       style="fill:black;fill-opacity:1;line-height:1.25;stroke:none;font-family:sans-serif;font-style:normal;font-weight:normal;font-size:10.58333333px;white-space:pre;shape-inside:url(#rect2423);"
       id="text2421"
       xml:space="preserve" />
    <text
       transform="matrix(2.0440516,0,0,2.0440516,431.66949,-119.15159)"
       style="font-style:normal;font-variant:normal;font-weight:normal;font-stretch:normal;font-size:10.5833px;line-height:1.25;font-family:'Saira Stencil One';-inkscape-font-specification:'Saira Stencil One, Normal';font-variant-ligatures:normal;font-variant-caps:normal;font-variant-numeric:normal;font-variant-east-asian:normal;white-space:pre;shape-inside:url(#rect2990);fill:#ffffff;fill-opacity:1;stroke:none;stroke-width:0.489225;"
       id="text2988"
       xml:space="preserve"><tspan
         x="-187.94922"
         y="115.69273"><tspan
           style="font-style:normal;font-variant:normal;font-weight:normal;font-stretch:normal;font-size:10.5833px;font-family:'Saira Stencil One';-inkscape-font-specification:'Saira Stencil One, Normal';font-variant-ligatures:normal;font-variant-caps:normal;font-variant-numeric:normal;font-variant-east-asian:normal;fill:#ffffff;stroke-width:0.489225">Hello world</tspan></tspan></text>
  </g>
</svg>
